<svg width="121" height="50" viewBox="0 0 121 50" fill="none" xmlns="http://www.w3.org/2000/svg">
<path d="M22.1607 6.522C20.7433 8.19924 18.4755 9.52214 16.2076 9.33315C15.9241 7.06533 17.0344 4.65577 18.3337 3.16751C19.7511 1.44301 22.2315 0.21461 24.2395 0.120117C24.4757 2.48243 23.5544 4.79751 22.1607 6.522ZM24.2159 9.78199C20.9323 9.59301 18.1211 11.6482 16.562 11.6482C14.9792 11.6482 12.5933 9.87649 9.99473 9.92373C6.61662 9.97098 3.47474 11.8845 1.75025 14.9318C-1.79323 21.0266 0.828941 30.0507 4.2543 35.0115C5.93155 37.4683 7.93952 40.1614 10.5853 40.0669C13.0894 39.9724 14.0815 38.4369 17.1053 38.4369C20.1527 38.4369 21.0268 40.0669 23.6725 40.0197C26.4128 39.9724 28.1373 37.5628 29.8146 35.106C31.7281 32.3185 32.5076 29.6018 32.5549 29.4601C32.5076 29.4128 27.2633 27.4049 27.216 21.3573C27.1688 16.302 31.3501 13.8924 31.5391 13.7507C29.1768 10.2545 25.4915 9.87649 24.2159 9.78199ZM43.1853 2.93127V39.7598H48.9021V27.1686H56.8159C64.0446 27.1686 69.1235 22.2078 69.1235 15.0263C69.1235 7.84489 64.139 2.93127 57.0048 2.93127H43.1853ZM48.9021 7.7504H55.493C60.4538 7.7504 63.2886 10.3962 63.2886 15.05C63.2886 19.7037 60.4538 22.3731 55.4693 22.3731H48.9021V7.7504ZM79.565 40.0433C83.1557 40.0433 86.4866 38.2243 87.9984 35.3423H88.1166V39.7598H93.4081V21.4282C93.4081 16.113 89.156 12.6876 82.6124 12.6876C76.5412 12.6876 72.0528 16.1602 71.8874 20.9321H77.0373C77.4625 18.6643 79.565 17.176 82.447 17.176C85.9432 17.176 87.904 18.806 87.904 21.8062V23.8378L80.7698 24.263C74.1316 24.6646 70.5409 27.3813 70.5409 32.1059C70.5409 36.8778 74.2498 40.0433 79.565 40.0433ZM81.1005 35.673C78.0531 35.673 76.116 34.2084 76.116 31.9642C76.116 29.6491 77.9822 28.3026 81.5493 28.09L87.904 27.6884V29.7672C87.904 33.2162 84.9747 35.673 81.1005 35.673ZM100.471 49.776C106.047 49.776 108.669 47.6499 110.96 41.2008L121 13.042H115.189L108.456 34.7989H108.338L101.605 13.042H95.6287L105.314 39.8543L104.795 41.4843C103.92 44.2482 102.503 45.3112 99.9754 45.3112C99.5266 45.3112 98.6525 45.264 98.2981 45.2168V49.6343C98.6289 49.7288 100.046 49.776 100.471 49.776Z" fill="#FFF6E2"/>
</svg>
