<svg width="77" height="32" viewBox="0 0 77 32" fill="none" xmlns="http://www.w3.org/2000/svg">
<path d="M14.5361 4.11102C13.6427 5.16823 12.2132 6.00209 10.7837 5.88297C10.605 4.4535 11.3049 2.93469 12.1239 1.9966C13.0173 0.909602 14.5808 0.135306 15.8464 0.0757446C15.9953 1.56478 15.4146 3.02403 14.5361 4.11102ZM15.8315 6.16589C13.7618 6.04676 11.9898 7.34222 11.0071 7.34222C10.0094 7.34222 8.50551 6.22545 6.86757 6.25523C4.73826 6.28501 2.75785 7.49112 1.67085 9.41197C-0.562696 13.2537 1.09013 18.9418 3.24923 22.0687C4.30644 23.6173 5.57212 25.3148 7.23983 25.2553C8.81821 25.1957 9.4436 24.2278 11.3496 24.2278C13.2704 24.2278 13.8214 25.2553 15.4891 25.2255C17.2163 25.1957 18.3033 23.6769 19.3606 22.1283C20.5667 20.3713 21.0581 18.6589 21.0878 18.5695C21.0581 18.5397 17.7524 17.2741 17.7226 13.4621C17.6928 10.2756 20.3284 8.7568 20.4475 8.66746C18.9585 6.46369 16.6356 6.22545 15.8315 6.16589ZM27.7885 1.84769V25.0617H31.3919V17.1252H36.3802C40.9366 17.1252 44.138 13.9982 44.138 9.47154C44.138 4.94488 40.9962 1.84769 36.4993 1.84769H27.7885ZM31.3919 4.88532H35.5463C38.6733 4.88532 40.4601 6.55303 40.4601 9.48643C40.4601 12.4198 38.6733 14.1024 35.5314 14.1024H31.3919V4.88532ZM50.7196 25.2404C52.9829 25.2404 55.0824 24.0938 56.0354 22.2772H56.1099V25.0617H59.4453V13.5068C59.4453 10.1565 56.765 7.99739 52.6404 7.99739C48.8136 7.99739 45.9844 10.1863 45.8802 13.1941H49.1263C49.3943 11.7646 50.7196 10.8266 52.5362 10.8266C54.74 10.8266 55.9758 11.854 55.9758 13.7451V15.0256L51.479 15.2937C47.2948 15.5468 45.0315 17.2592 45.0315 20.2372C45.0315 23.2451 47.3692 25.2404 50.7196 25.2404ZM51.6874 22.4857C49.7666 22.4857 48.5456 21.5625 48.5456 20.1479C48.5456 18.6886 49.7219 17.8399 51.9704 17.7059L55.9758 17.4527V18.7631C55.9758 20.9371 54.1294 22.4857 51.6874 22.4857ZM63.8975 31.3752C67.4116 31.3752 69.0644 30.0351 70.5088 25.97L76.8372 8.22075H73.1742L68.9304 21.9347H68.856L64.6122 8.22075H60.845L66.95 25.1213L66.6224 26.1487C66.0715 27.8909 65.1781 28.5609 63.5848 28.5609C63.3019 28.5609 62.7509 28.5311 62.5276 28.5014V31.2859C62.7361 31.3454 63.6295 31.3752 63.8975 31.3752Z" fill="#707070"/>
</svg>
