<svg width="34" height="30" viewBox="0 0 34 30" fill="none" xmlns="http://www.w3.org/2000/svg">
<path d="M25.334 16.6669C27.1021 16.6669 28.7978 17.3693 30.048 18.6195C31.2983 19.8698 32.0007 21.5655 32.0007 23.3336C32.0007 25.1017 31.2983 26.7974 30.048 28.0476C28.7978 29.2979 27.1021 30.0002 25.334 30.0002C21.764 30.0002 18.6673 27.0169 18.6673 23.3336H15.334C15.3334 24.951 14.7448 26.513 13.6778 27.7286C12.6109 28.9442 11.1385 29.7305 9.53482 29.941C7.93117 30.1514 6.30569 29.7717 4.96124 28.8726C3.61678 27.9735 2.64505 26.6162 2.22709 25.0537C1.80913 23.4913 1.97345 21.8301 2.68943 20.3798C3.4054 18.9295 4.62421 17.789 6.11877 17.1707C7.61333 16.5524 9.2817 16.4985 10.813 17.0191C12.3444 17.5396 13.6342 18.5992 14.4423 20.0002H19.559C20.144 18.9863 20.9857 18.1444 21.9995 17.5593C23.0134 16.9741 24.1634 16.6663 25.334 16.6669V16.6669ZM0.333984 15.0002V11.6669H3.66732V6.66691C3.66732 4.8988 4.3697 3.20311 5.61994 1.95287C6.87018 0.702623 8.56587 0.000244141 10.334 0.000244141H23.6673C25.4354 0.000244141 27.1311 0.702623 28.3814 1.95287C29.6316 3.20311 30.334 4.8988 30.334 6.66691V11.6669H33.6673V15.0002H0.333984Z" fill="#FCAD00"/>
</svg>
