<svg width="32" height="32" viewBox="0 0 32 32" fill="none" xmlns="http://www.w3.org/2000/svg">
<path d="M6.08317 1.83396C6.08317 1.0548 5.44567 0.417297 4.6665 0.417297C3.88734 0.417297 3.24984 1.0548 3.24984 1.83396V7.50063H0.416504V16.0006H8.9165V7.50063H6.08317V1.83396ZM11.7498 25.6623H14.5832V31.584H17.4165V25.6623H20.2498V18.834H11.7498V25.6623ZM0.416504 25.6623H3.24984V31.584H6.08317V25.6623H8.9165V18.834H0.416504V25.6623ZM28.7498 7.50063V1.83396C28.7498 1.0548 28.1123 0.417297 27.3332 0.417297C26.554 0.417297 25.9165 1.0548 25.9165 1.83396V7.50063H23.0832V16.0006H31.5832V7.50063H28.7498ZM17.4165 1.83396C17.4165 1.0548 16.779 0.417297 15.9998 0.417297C15.2207 0.417297 14.5832 1.0548 14.5832 1.83396V7.50063H11.7498V16.0006H20.2498V7.50063H17.4165V1.83396ZM23.0832 25.6623H25.9165V31.584H28.7498V25.6623H31.5832V18.834H23.0832V25.6623Z" fill="#FCAD00"/>
</svg>
