<svg width="34" height="41" viewBox="0 0 34 41" fill="none" xmlns="http://www.w3.org/2000/svg">
<path d="M17.5498 14.3724L13.1131 9.9174H23.4164V16.3341H26.1664V7.1674H13.1131L17.5498 2.7124L15.6064 0.750732L7.83309 8.5424L15.6064 16.3341L17.5498 14.3724ZM16.9998 23.6674C15.912 23.6674 14.8486 23.99 13.9441 24.5943C13.0396 25.1987 12.3347 26.0576 11.9184 27.0626C11.5021 28.0676 11.3932 29.1735 11.6054 30.2404C11.8177 31.3073 12.3415 32.2873 13.1107 33.0565C13.8799 33.8257 14.8599 34.3495 15.9268 34.5617C16.9937 34.7739 18.0995 34.665 19.1045 34.2487C20.1095 33.8325 20.9685 33.1275 21.5728 32.223C22.1772 31.3186 22.4998 30.2552 22.4998 29.1674C22.4998 27.7087 21.9203 26.3098 20.8888 25.2783C19.8574 24.2469 18.4584 23.6674 16.9998 23.6674ZM0.499756 18.1674V40.1674H33.4998V18.1674H0.499756ZM29.8331 32.8341C28.8606 32.8341 27.928 33.2204 27.2404 33.908C26.5527 34.5956 26.1664 35.5283 26.1664 36.5007H7.83309C7.83309 35.5283 7.44678 34.5956 6.75915 33.908C6.07151 33.2204 5.13888 32.8341 4.16642 32.8341V25.5007C5.13888 25.5007 6.07151 25.1144 6.75915 24.4268C7.44678 23.7392 7.83309 22.8065 7.83309 21.8341H26.1664C26.1664 22.8065 26.5527 23.7392 27.2404 24.4268C27.928 25.1144 28.8606 25.5007 29.8331 25.5007V32.8341Z" fill="#FCAD00"/>
</svg>
