<svg width="6" height="9" viewBox="0 0 6 9" fill="none" xmlns="http://www.w3.org/2000/svg">
<path d="M5.68 0.39C5.76 0.39 5.83 0.415 5.89 0.465C5.95 0.515 5.98 0.59 5.98 0.69L5.98 1.35C5.98 1.47 5.955 1.565 5.905 1.635C5.845 1.705 5.755 1.775 5.635 1.845L1.63 4.59L5.635 7.335C5.755 7.415 5.845 7.49 5.905 7.56C5.955 7.63 5.98 7.725 5.98 7.845L5.98 8.505C5.98 8.605 5.95 8.68 5.89 8.73C5.83 8.78 5.76 8.805 5.68 8.805C5.62 8.805 5.555 8.785 5.485 8.745C5.415 8.715 5.36 8.685 5.32 8.655L0.61 5.415C0.45 5.305 0.34 5.2 0.28 5.1C0.21 5 0.175001 4.875 0.175001 4.725L0.175001 4.47C0.175001 4.33 0.210001 4.205 0.280001 4.095C0.34 3.995 0.45 3.89 0.61 3.78L5.32 0.54C5.36 0.51 5.415 0.475 5.485 0.435C5.555 0.405 5.62 0.39 5.68 0.39Z" fill="#FCAD00"/>
</svg>
