<svg width="56" height="51" viewBox="0 0 56 51" fill="none" xmlns="http://www.w3.org/2000/svg">
<path d="M53 31H50.5C50.5 21.325 42.675 13.5 33 13.5H30.5V10.325C31.2603 9.88608 31.8916 9.25469 32.3304 8.49435C32.7693 7.73401 33.0002 6.87152 33 5.99362C32.9998 5.11572 32.7684 4.25335 32.3292 3.49324C31.8899 2.73312 31.2583 2.10206 30.4978 1.66349C29.7373 1.22493 28.8747 0.994342 27.9968 0.994905C27.1189 0.995467 26.2566 1.22717 25.4967 1.6667C24.7367 2.10624 24.1059 2.73811 23.6676 3.49879C23.2294 4.25947 22.9991 5.12213 23 6.00003C23 7.85003 24 9.47503 25.5 10.325V13.5H23C13.325 13.5 5.5 21.325 5.5 31H3C1.625 31 0.5 32.125 0.5 33.5V41C0.5 42.375 1.625 43.5 3 43.5H5.5V46C5.5 47.3261 6.02678 48.5979 6.96447 49.5356C7.90215 50.4732 9.17392 51 10.5 51H45.5C48.275 51 50.5 48.775 50.5 46V43.5H53C54.375 43.5 55.5 42.375 55.5 41V33.5C55.5 32.125 54.375 31 53 31ZM22.475 37.25C21.5 35.05 19.325 33.5 16.75 33.5C14.175 33.5 12 35.05 11.025 37.25C10.7 36.475 10.5 35.65 10.5 34.75C10.5 33.0924 11.1585 31.5027 12.3306 30.3306C13.5027 29.1585 15.0924 28.5 16.75 28.5C18.4076 28.5 19.9973 29.1585 21.1694 30.3306C22.3415 31.5027 23 33.0924 23 34.75C23 35.65 22.8 36.475 22.475 37.25ZM44.975 37.25C44 35.05 41.75 33.5 39.25 33.5C36.75 33.5 34.5 35.05 33.525 37.25C33.2 36.475 33 35.65 33 34.75C33 33.0924 33.6585 31.5027 34.8306 30.3306C36.0027 29.1585 37.5924 28.5 39.25 28.5C40.9076 28.5 42.4973 29.1585 43.6694 30.3306C44.8415 31.5027 45.5 33.0924 45.5 34.75C45.5 35.65 45.3 36.475 44.975 37.25Z" fill="#FCAD00"/>
</svg>
