<svg width="52" height="52" viewBox="0 0 52 52" fill="none" xmlns="http://www.w3.org/2000/svg">
<path d="M38.4801 23.4C38.7401 22.62 39.0001 21.84 39.0001 20.8C39.0001 15.08 34.3201 10.4 28.6001 10.4C24.7001 10.4 21.0601 12.74 19.5001 16.12C18.7201 15.86 17.6801 15.6 16.9001 15.6C13.2601 15.6 10.4001 18.46 10.4001 22.1C10.4001 22.62 10.4001 23.14 10.6601 23.4C5.9801 24.18 2.6001 27.82 2.6001 32.5C2.6001 37.44 6.7601 41.6 11.7001 41.6H37.7001C42.6401 41.6 46.8001 37.44 46.8001 32.5C46.8001 27.82 43.1601 23.92 38.4801 23.4ZM22.1001 38.74L13.7801 30.42L17.4201 26.78L22.1001 31.46L31.9801 21.58L35.6201 25.22L22.1001 38.74Z" fill="#FCAD00"/>
</svg>
