<svg width="52" height="52" viewBox="0 0 52 52" fill="none" xmlns="http://www.w3.org/2000/svg">
<path d="M45.0938 40.2188H10.1562V8.53125C10.1562 8.30781 9.97344 8.125 9.75 8.125H6.90625C6.68281 8.125 6.5 8.30781 6.5 8.53125V43.4688C6.5 43.6922 6.68281 43.875 6.90625 43.875H45.0938C45.3172 43.875 45.5 43.6922 45.5 43.4688V40.625C45.5 40.4016 45.3172 40.2188 45.0938 40.2188ZM13.8125 36.9688H41.0312C41.2547 36.9688 41.4375 36.7859 41.4375 36.5625V14.4219C41.4375 14.0563 40.9957 13.8785 40.7418 14.1324L30.0625 24.8117L23.6945 18.5148C23.6182 18.4392 23.5151 18.3968 23.4076 18.3968C23.3002 18.3968 23.1971 18.4392 23.1207 18.5148L13.523 28.143C13.4858 28.1803 13.4563 28.2247 13.4362 28.2735C13.4162 28.3223 13.406 28.3746 13.4062 28.4273V36.5625C13.4062 36.7859 13.5891 36.9688 13.8125 36.9688Z" fill="#FCAD00"/>
</svg>
