<svg width="50" height="50" viewBox="0 0 50 50" fill="none" xmlns="http://www.w3.org/2000/svg">
<path d="M0 7.5H50V37.5H48.125C48.125 33.025 44.475 29.375 40 29.375C36.725 29.375 33.95 31.35 32.65 34.15C32.025 33.9 31.35 33.75 30.625 33.75C28.175 33.75 26.125 35.325 25.35 37.5H0V7.5ZM20.925 15.275C20.775 15.65 20.675 16.05 20.65 16.45C20.625 16.85 20.625 17.275 20.675 17.7L20.725 17.9C20.75 18.05 20.775 18.25 20.85 18.475C20.9 18.725 21 18.975 21.1 19.25C21.175 19.525 21.325 19.8 21.475 20.075C21.65 20.375 21.85 20.625 22.05 20.85C22.25 21.075 22.5 21.275 22.825 21.425C23.125 21.575 23.45 21.65 23.825 21.65C24.175 21.65 24.5 21.575 24.8 21.425C25.1 21.275 25.35 21.075 25.55 20.875C25.775 20.65 25.95 20.375 26.1 20.075C26.275 19.775 26.4 19.5 26.5 19.25C26.6 19 26.675 18.75 26.725 18.475C26.8 18.2 26.825 18.025 26.85 17.925C26.875 17.825 26.875 17.75 26.875 17.7C27 16.975 26.95 16.3 26.775 15.65C26.6 15 26.25 14.45 25.75 14C25.225 13.55 24.575 13.325 23.775 13.325C23.3 13.325 22.875 13.4 22.475 13.575C22.1 13.75 21.775 13.975 21.525 14.275C21.3 14.55 21.1 14.9 20.925 15.275ZM32.125 30.375V27.525C32.125 26.7 31.875 25.875 31.4 25.075C30.925 24.275 30.275 23.6 29.475 23.1C28.675 22.575 27.825 22.325 26.925 22.325L23.825 24.425L20.625 22.375C19.7 22.375 18.825 22.625 18.025 23.125C17.25 23.625 16.625 24.275 16.175 25.05C15.725 25.85 15.5 26.675 15.5 27.525V30.375L15.95 30.5C16.25 30.6 16.675 30.7 17.225 30.85C17.8 30.975 18.4 31.1 19.075 31.225C19.725 31.35 20.5 31.45 21.35 31.55C22.2 31.625 23.025 31.675 23.825 31.675C24.575 31.675 25.4 31.625 26.275 31.55C27.125 31.45 27.875 31.35 28.5 31.225C29.125 31.125 29.75 30.975 30.4 30.825L31.65 30.525C31.85 30.475 32 30.425 32.125 30.375ZM40 30.625C43.8 30.625 46.875 33.7 46.875 37.5C46.875 41.3 43.8 44.375 40 44.375C38.175 44.375 36.55 43.625 35.325 42.45C36.1396 41.2188 36.4338 39.7152 36.1433 38.2678C35.8529 36.8204 35.0015 35.5467 33.775 34.725C34.85 32.325 37.2 30.625 40 30.625ZM26.25 39.375C26.25 36.975 28.225 35 30.625 35C33.025 35 35 36.975 35 39.375C35 41.775 33.025 43.75 30.625 43.75C28.225 43.75 26.25 41.775 26.25 39.375Z" fill="#FCAD00"/>
</svg>
