<svg width="70" height="69" viewBox="0 0 70 69" fill="none" xmlns="http://www.w3.org/2000/svg">
<path d="M42.6281 53.7913C40.5213 54.6346 38.212 54.8352 35.9914 54.3676C33.7708 53.9 31.7384 52.7852 30.1507 51.1639C28.5629 49.5426 27.4908 47.4874 27.0697 45.2575C26.6486 43.0277 26.8973 40.723 27.7845 38.6343L35.3141 46.164L41.4091 40.0661L33.8823 32.5365C36.0055 31.6308 38.3526 31.3871 40.6165 31.8371C42.8804 32.2872 44.9558 33.4101 46.5711 35.059C48.1864 36.7078 49.2665 38.8059 49.6699 41.0786C50.0734 43.3513 49.7814 45.6929 48.8323 47.797L54.3897 53.3543C57.0684 49.5098 58.5025 44.9358 58.4981 40.2501C58.4568 32.8696 56.7557 25.5929 53.5209 18.959C50.286 12.325 45.6002 6.50379 39.8106 1.92633C41.0388 6.43118 41.7526 11.0607 41.9381 15.7263C42.0402 17.0835 41.8635 18.4472 41.419 19.7336C40.9744 21.0199 40.2713 22.2017 39.353 23.2062C38.4347 24.2107 37.3205 25.0167 36.0791 25.5746C34.8376 26.1324 33.4952 26.4304 32.1343 26.4501C30.7404 26.4467 29.3612 26.1648 28.0777 25.6211C26.7943 25.0774 25.6323 24.2827 24.6602 23.2838C23.688 22.2848 22.9252 21.1017 22.4165 19.8039C21.9079 18.5061 21.6636 17.1198 21.6981 15.7263L21.7843 14.6913C15.7677 21.8469 12.4781 30.9012 12.4981 40.2501C12.4988 44.4105 13.6281 48.4928 15.7655 52.0622C17.9029 55.6315 20.9684 58.5543 24.6356 60.5192C28.3028 62.4841 32.4343 63.4174 36.59 63.2199C40.7457 63.0224 44.77 61.7014 48.2343 59.3976L42.6281 53.7913Z" fill="#FCAD00"/>
</svg>
