<svg width="61" height="62" viewBox="0 0 61 62" fill="none" xmlns="http://www.w3.org/2000/svg">
<path d="M38.125 56.3389H12.7083V51.2556H38.125V56.3389ZM55.9167 10.5711L43.8819 25.7068L43.3227 26.393L29.0131 44.6676C28.5408 45.1399 27.9801 45.5145 27.363 45.7701C26.746 46.0257 26.0846 46.1573 25.4167 46.1573C24.7487 46.1573 24.0873 46.0257 23.4703 45.7701C22.8532 45.5145 22.2925 45.1399 21.8202 44.6676C21.3479 44.1953 20.9733 43.6346 20.7177 43.0175C20.4621 42.4004 20.3305 41.739 20.3305 41.0711C20.3305 40.4032 20.4621 39.7418 20.7177 39.1247C20.9733 38.5077 21.3479 37.947 21.8202 37.4747L55.9167 10.5711ZM6.7227 18.7909C3.05134 24.6711 1.73089 31.719 3.02457 38.5295H5.08332V35.9878C5.05563 30.9832 6.55401 26.0891 9.37874 21.9578L6.7227 18.7909ZM30.5 5.48779C26.613 5.48693 22.7688 6.2997 19.2148 7.87381C15.6608 9.44793 12.4756 11.7485 9.8642 14.6276L12.7719 18.0945C16.2222 14.9218 20.7295 13.1461 25.4167 13.1128C30.1291 13.1456 34.6591 14.9388 38.1174 18.1402L47.1403 11.0185C42.3356 7.42773 36.4982 5.4876 30.5 5.48779ZM47.8596 28.8711L47.2674 29.6006L45.417 31.9643C45.6333 33.2947 45.7446 34.64 45.75 35.9878V38.5295H57.9754C59.1815 32.1687 58.1175 25.5863 54.9686 19.9295L47.8596 28.8711Z" fill="#FCAD00"/>
</svg>
