<svg width="63" height="63" viewBox="0 0 63 63" fill="none" xmlns="http://www.w3.org/2000/svg">
<path d="M28.875 21H34.125V23.625H28.875V21Z" fill="#FCAD00"/>
<path d="M28.875 10.5H34.125V13.125H28.875V10.5Z" fill="#FCAD00"/>
<path d="M28.875 26.25H34.125V28.875H28.875V26.25Z" fill="#FCAD00"/>
<path d="M55.125 31.5V23.625C47.1225 23.6233 39.369 26.4077 33.1957 31.5H29.8043C23.631 26.4077 15.8775 23.6233 7.875 23.625V31.5C7.17881 31.5 6.51113 31.7766 6.01884 32.2688C5.52656 32.7611 5.25 33.4288 5.25 34.125V39.375C5.25 40.0712 5.52656 40.7389 6.01884 41.2312C6.51113 41.7234 7.17881 42 7.875 42V52.5C16.6479 52.492 25.0949 55.8239 31.5 61.8187C37.9118 55.8345 46.3544 52.5043 55.125 52.5V42C55.8212 42 56.4889 41.7234 56.9812 41.2312C57.4734 40.7389 57.75 40.0712 57.75 39.375V34.125C57.75 33.4288 57.4734 32.7611 56.9812 32.2688C56.4889 31.7766 55.8212 31.5 55.125 31.5Z" fill="#FCAD00"/>
<path d="M23.625 13.125C25.0747 13.125 26.25 11.9497 26.25 10.5C26.25 9.05025 25.0747 7.875 23.625 7.875C22.1753 7.875 21 9.05025 21 10.5C21 11.9497 22.1753 13.125 23.625 13.125Z" fill="#FCAD00"/>
<path d="M39.375 13.125C40.8247 13.125 42 11.9497 42 10.5C42 9.05025 40.8247 7.875 39.375 7.875C37.9253 7.875 36.75 9.05025 36.75 10.5C36.75 11.9497 37.9253 13.125 39.375 13.125Z" fill="#FCAD00"/>
<path d="M42 21H21C18.9121 20.9979 16.9102 20.1676 15.4338 18.6912C13.9574 17.2148 13.1271 15.2129 13.125 13.125V7.875C13.1271 5.78706 13.9574 3.78523 15.4338 2.30884C16.9102 0.832439 18.9121 0.00208481 21 0L42 0C44.0879 0.00208481 46.0898 0.832439 47.5662 2.30884C49.0426 3.78523 49.8729 5.78706 49.875 7.875V13.125C49.8729 15.2129 49.0426 17.2148 47.5662 18.6912C46.0898 20.1676 44.0879 20.9979 42 21ZM21 5.25C20.304 5.25069 19.6367 5.52748 19.1446 6.01961C18.6525 6.51174 18.3757 7.17902 18.375 7.875V13.125C18.3757 13.821 18.6525 14.4883 19.1446 14.9804C19.6367 15.4725 20.304 15.7493 21 15.75H42C42.696 15.7493 43.3633 15.4725 43.8554 14.9804C44.3475 14.4883 44.6243 13.821 44.625 13.125V7.875C44.6243 7.17902 44.3475 6.51174 43.8554 6.01961C43.3633 5.52748 42.696 5.25069 42 5.25H21Z" fill="#FCAD00"/>
</svg>
