<svg width="57" height="56" viewBox="0 0 57 56" fill="none" xmlns="http://www.w3.org/2000/svg">
<g clip-path="url(#clip0_953_64)">
<path d="M42.8652 22.167C42.8698 20.9436 42.4884 19.7499 41.7753 18.7559C41.0622 17.7618 40.0537 17.0179 38.8934 16.6302C37.733 16.2425 36.48 16.2306 35.3125 16.5963C34.145 16.962 33.1227 17.6866 32.3909 18.667H25.3419C24.4873 17.5637 23.2566 16.8133 21.8844 16.5589C20.5123 16.3045 19.0944 16.5637 17.9011 17.2873C16.7077 18.0109 15.8223 19.1483 15.4135 20.4826C15.0047 21.817 15.1011 23.2551 15.6843 24.523C16.2675 25.7909 17.2968 26.7999 18.5761 27.3577C19.8553 27.9156 21.2951 27.9834 22.621 27.5481C23.947 27.1128 25.0665 26.2049 25.7662 24.9974C26.4659 23.7899 26.6969 22.3672 26.4152 21.0003H31.3175C31.1553 21.799 31.1623 22.6228 31.338 23.4187C31.5137 24.2145 31.8542 24.9647 32.3376 25.6209C32.821 26.277 33.4365 26.8246 34.1444 27.2284C34.8524 27.6321 35.6371 27.883 36.448 27.9649C37.2588 28.0468 38.0779 27.9579 38.8522 27.7039C39.6266 27.4499 40.3392 27.0365 40.9441 26.4902C41.5489 25.9439 42.0325 25.277 42.3638 24.5324C42.6951 23.7878 42.8667 22.982 42.8675 22.167H42.8652Z" fill="#FCAD00"/>
<path d="M47.5319 11.6669H40.5319V4.66691C40.5319 3.42923 40.0403 2.24225 39.1651 1.36708C38.2899 0.491909 37.103 0.000244141 35.8653 0.000244141L21.8653 0.000244141C20.6276 0.000244141 19.4406 0.491909 18.5654 1.36708C17.6903 2.24225 17.1986 3.42923 17.1986 4.66691V11.6669H10.1986V14.0002H47.5319V11.6669Z" fill="#FCAD00"/>
<path d="M12.5319 39.667H10.1986C7.72321 39.667 5.34924 40.6503 3.5989 42.4006C1.84856 44.151 0.865234 46.5249 0.865234 49.0003L0.865234 56.0003H19.5319L17.1986 53.667L21.8652 49.0003L12.5319 39.667Z" fill="#FCAD00"/>
<path d="M47.5319 39.667H45.1986L35.8652 49.0003L40.5319 53.667L38.1986 56.0003H56.8652V49.0003C56.8652 46.5249 55.8819 44.151 54.1316 42.4006C52.3812 40.6503 50.0073 39.667 47.5319 39.667Z" fill="#FCAD00"/>
<path d="M26.5319 46.667H31.1985V56.0003H26.5319V46.667Z" fill="#FCAD00"/>
<path d="M28.8652 42.0002L26.5319 46.6669H31.1985L28.8652 42.0002Z" fill="#FCAD00"/>
</g>
<defs>
<clipPath id="clip0_953_64">
<rect width="56" height="56" fill="white" transform="translate(0.865234 0.000244141)"/>
</clipPath>
</defs>
</svg>
