<svg width="58" height="58" viewBox="0 0 58 58" fill="none" xmlns="http://www.w3.org/2000/svg">
<path d="M17.7366 24.3721L29.0003 13.1089L40.2699 24.378L46.8239 17.8241L29.0003 0L11.1826 17.8181L17.7366 24.3721Z" fill="#FCAD00"/>
<path d="M13.1081 28.999L6.5542 22.4451L7.92503e-06 28.9993L6.55388 35.5532L13.1081 28.999Z" fill="#FCAD00"/>
<path d="M17.7365 33.6279L29.0001 44.8911L40.2693 33.6224L46.8269 40.1728L46.8237 40.1764L29.0001 58L11.182 40.1824L11.1729 40.1732L17.7365 33.6279Z" fill="#FCAD00"/>
<path d="M51.4468 35.5562L58.001 29.002L51.4471 22.4482L44.8929 29.0024L51.4468 35.5562Z" fill="#FCAD00"/>
<path d="M35.6479 28.9965H35.6507L29 22.3459L24.0851 27.2608H24.0847L23.5203 27.8256L22.3554 28.9906L22.3462 28.9997L22.3554 29.0094L29 35.654L35.6507 29.0034L35.6539 28.9997L35.6479 28.9965Z" fill="#FCAD00"/>
</svg>
