<svg width="55" height="52" viewBox="0 0 55 52" fill="none" xmlns="http://www.w3.org/2000/svg">
<path d="M36.7113 5.05051C34.8656 4.37871 32.8369 4.37871 30.9913 5.05051L21.5159 8.49984C20.7781 8.76854 20.1416 9.25333 19.6921 9.88899C19.2425 10.5247 19.0014 11.2807 19.0013 12.0553V18.1068C20.7736 17.8279 22.589 18.0033 24.2725 18.616L33.7479 22.0653C34.8787 22.477 35.8291 23.1985 36.5155 24.1107C37.4491 23.9258 38.399 23.8329 39.3513 23.8333C42.9263 23.8333 46.1933 25.1247 48.7013 27.261V12.0553C48.7009 11.2804 48.4595 10.5242 48.0096 9.88852C47.5596 9.25283 46.9226 8.76818 46.1845 8.49984L36.7113 5.04834V5.05051ZM26.7431 15.6217C26.5382 15.552 26.3493 15.4432 26.1872 15.3016C26.025 15.16 25.8928 14.9883 25.798 14.7964C25.7032 14.6044 25.6477 14.396 25.6347 14.1829C25.6217 13.9699 25.6515 13.7564 25.7223 13.5547C25.7931 13.3529 25.9035 13.1669 26.0473 13.0072C26.191 12.8475 26.3654 12.7173 26.5603 12.6239C26.7551 12.5306 26.9668 12.4759 27.1831 12.4631C27.3995 12.4503 27.6162 12.4796 27.8211 12.5493L33.6709 14.5427C33.787 14.5821 33.9133 14.5821 34.0295 14.5427L39.8595 12.5493C40.0643 12.4793 40.2811 12.4498 40.4976 12.4623C40.714 12.4748 40.9258 12.5292 41.1209 12.6224C41.316 12.7155 41.4906 12.8456 41.6346 13.0052C41.7787 13.1648 41.8894 13.3508 41.9605 13.5525C42.0315 13.7542 42.0616 13.9678 42.0488 14.1809C42.0361 14.3941 41.9809 14.6027 41.8863 14.7949C41.7917 14.987 41.6596 15.1589 41.4976 15.3008C41.3355 15.4426 41.1467 15.5517 40.9419 15.6217L35.1119 17.6128C34.2953 17.8915 33.4073 17.8915 32.5907 17.6128L26.7431 15.6217ZM32.9845 24.0998C33.4267 24.2602 33.8271 24.4963 34.1703 24.7888C31.868 25.6731 29.837 27.1286 28.2743 29.0138C28.0555 28.8287 27.7913 28.7032 27.508 28.65C27.2246 28.5968 26.9321 28.6177 26.6595 28.7105L20.6491 30.7645L14.6211 28.7105C14.4162 28.6408 14.1995 28.6115 13.9831 28.6243C13.7668 28.6371 13.5551 28.6917 13.3603 28.7851C12.9667 28.9736 12.6652 29.3084 12.5223 29.7158C12.3793 30.1233 12.4066 30.5699 12.598 30.9576C12.7894 31.3452 13.1294 31.6421 13.5431 31.7828L18.9991 33.6397V39.4897C18.9991 39.9206 19.1729 40.334 19.4823 40.6387C19.7918 40.9435 20.2115 41.1147 20.6491 41.1147C21.0867 41.1147 21.5064 40.9435 21.8158 40.6387C22.1252 40.334 22.2991 39.9206 22.2991 39.4897V33.6397L26.2371 32.2963C25.4518 34.0698 25.0473 35.9841 25.0491 37.9188C25.0452 40.6278 25.8384 43.2798 27.3327 45.5542L23.5113 46.9452C21.6633 47.6168 19.6371 47.6168 17.7913 46.9452L8.31587 43.4958C7.57777 43.227 6.94105 42.7419 6.49145 42.1058C6.04185 41.4697 5.80098 40.7132 5.80127 39.9382V27.6532C5.80143 26.8785 6.04251 26.1225 6.49208 25.4868C6.94165 24.8512 7.57812 24.3664 8.31587 24.0977L17.7913 20.6483C19.6369 19.9765 21.6656 19.9765 23.5113 20.6483L32.9845 24.0977V24.0998ZM51.4513 37.9188C51.4513 41.0793 50.1765 44.1104 47.9073 46.3452C45.6381 48.58 42.5604 49.8355 39.3513 49.8355C36.1421 49.8355 33.0645 48.58 30.7953 46.3452C28.5261 44.1104 27.2513 41.0793 27.2513 37.9188C27.2513 34.7583 28.5261 31.7273 30.7953 29.4925C33.0645 27.2577 36.1421 26.0022 39.3513 26.0022C42.5604 26.0022 45.6381 27.2577 47.9073 29.4925C50.1765 31.7273 51.4513 34.7583 51.4513 37.9188ZM46.7279 32.8185C46.5216 32.6154 46.2419 32.5013 45.9502 32.5013C45.6585 32.5013 45.3788 32.6154 45.1725 32.8185L37.1513 40.7203L33.5279 37.1518C33.4256 37.0513 33.3042 36.9715 33.1706 36.9171C33.0371 36.8627 32.8939 36.8348 32.7494 36.8349C32.4575 36.8351 32.1776 36.9495 31.9714 37.1529C31.7651 37.3563 31.6494 37.6321 31.6496 37.9196C31.6498 38.2071 31.7659 38.4827 31.9725 38.6858L36.3725 43.0192C36.5788 43.2223 36.8585 43.3364 37.1502 43.3364C37.4418 43.3364 37.7216 43.2223 37.9279 43.0192L46.7279 34.3525C46.8303 34.2519 46.9116 34.1323 46.967 34.0007C47.0225 33.8691 47.051 33.728 47.051 33.5855C47.051 33.443 47.0225 33.3019 46.967 33.1703C46.9116 33.0387 46.8303 32.9191 46.7279 32.8185Z" fill="#FCAD00"/>
</svg>
