<svg width="54" height="54" viewBox="0 0 54 54" fill="none" xmlns="http://www.w3.org/2000/svg">
<path d="M10.7998 10.8C10.7998 9.36783 11.3687 7.99432 12.3814 6.98162C13.3941 5.96893 14.7676 5.4 16.1998 5.4H37.7998C39.232 5.4 40.6055 5.96893 41.6182 6.98162C42.6309 7.99432 43.1998 9.36783 43.1998 10.8V40.5C43.1998 41.2161 42.9153 41.9028 42.409 42.4092C41.9026 42.9155 41.2159 43.2 40.4998 43.2H13.4998C13.4998 43.9161 13.7843 44.6028 14.2906 45.1092C14.797 45.6155 15.4837 45.9 16.1998 45.9H41.8498C42.2078 45.9 42.5512 46.0422 42.8044 46.2954C43.0576 46.5486 43.1998 46.892 43.1998 47.25C43.1998 47.608 43.0576 47.9514 42.8044 48.2046C42.5512 48.4578 42.2078 48.6 41.8498 48.6H16.1998C14.7676 48.6 13.3941 48.0311 12.3814 47.0184C11.3687 46.0057 10.7998 44.6322 10.7998 43.2V10.8ZM26.9998 13.5C24.9613 13.5 23.0254 13.9401 21.5485 14.796C20.0716 15.6546 18.8998 17.0451 18.8998 18.9C18.8998 20.7549 20.0716 22.1454 21.5485 23.004C23.0254 23.8599 24.9613 24.3 26.9998 24.3C29.0383 24.3 30.9742 23.8599 32.4511 23.004C33.928 22.1454 35.0998 20.7549 35.0998 18.9C35.0998 17.0451 33.928 15.6546 32.4511 14.796C30.9742 13.9401 29.0383 13.5 26.9998 13.5ZM18.9835 24.3864C18.9282 24.5777 18.9 24.7758 18.8998 24.975C18.8998 25.785 19.3912 26.46 19.7908 26.892C20.2444 27.3834 20.8519 27.8505 21.5539 28.2555C22.9579 29.0628 24.8749 29.7 26.9998 29.7C29.1274 29.7 31.0444 29.0628 32.4457 28.2555C33.1477 27.8505 33.7552 27.3834 34.2115 26.8947C34.6084 26.4627 35.0998 25.7877 35.0998 24.975C35.0996 24.7758 35.0714 24.5777 35.0161 24.3864C34.6246 24.6834 34.2142 24.9534 33.793 25.1964C31.7224 26.3742 29.382 26.9956 26.9998 27C24.6174 26.9947 22.277 26.3724 20.2066 25.1937C19.7822 24.9508 19.3737 24.6812 18.9835 24.3864ZM18.9835 29.7864C18.9282 29.9777 18.9 30.1758 18.8998 30.375C18.8998 31.185 19.3912 31.86 19.7908 32.292C20.3079 32.8311 20.9021 33.2906 21.5539 33.6555C22.9579 34.4628 24.8749 35.1 26.9998 35.1C29.1274 35.1 31.0444 34.4628 32.4457 33.6555C33.1477 33.2505 33.7552 32.7834 34.2115 32.2947C34.6084 31.8627 35.0998 31.1877 35.0998 30.375C35.0996 30.1758 35.0714 29.9777 35.0161 29.7864C34.6259 30.082 34.2174 30.3525 33.793 30.5964C31.7223 31.7741 29.382 32.3954 26.9998 32.4C24.6174 32.3946 22.277 31.7723 20.2066 30.5937C19.7823 30.3507 19.3737 30.0811 18.9835 29.7864Z" fill="#FCAD00"/>
</svg>
