<svg width="52" height="52" viewBox="0 0 52 52" fill="none" xmlns="http://www.w3.org/2000/svg">
<path d="M34.1902 34.32C34.1902 34.32 40.3868 28.1667 42.4885 26C49.1402 19.5 45.8252 6.11001 45.8252 6.11001C45.8252 6.11001 32.5002 2.79501 26.0002 9.44668C20.9302 14.3867 17.6368 17.81 17.6368 17.81C17.6368 17.81 9.31683 16.0767 4.3335 21.06L30.8752 47.6667C35.8585 42.6183 34.1902 34.32 34.1902 34.32ZM30.9402 14.82C31.3426 14.4171 31.8205 14.0975 32.3466 13.8794C32.8726 13.6614 33.4365 13.5491 34.006 13.5491C34.5755 13.5491 35.1393 13.6614 35.6654 13.8794C36.1915 14.0975 36.6694 14.4171 37.0718 14.82C37.6774 15.4262 38.0896 16.1984 38.2564 17.0388C38.4232 17.8793 38.3371 18.7503 38.009 19.5418C37.6809 20.3334 37.1255 21.0099 36.413 21.4858C35.7005 21.9617 34.8628 22.2158 34.006 22.2158C33.1491 22.2158 32.3115 21.9617 31.599 21.4858C30.8865 21.0099 30.3311 20.3334 30.003 19.5418C29.6749 18.7503 29.5888 17.8793 29.7556 17.0388C29.9224 16.1984 30.3346 15.4262 30.9402 14.82ZM6.50016 45.5C10.5108 45.3856 14.3503 43.8498 17.3335 41.1667L10.8335 34.6667C6.50016 36.8333 6.50016 45.5 6.50016 45.5Z" fill="#FCAD00"/>
</svg>
