<svg width="54" height="54" viewBox="0 0 54 54" fill="none" xmlns="http://www.w3.org/2000/svg">
<path d="M33.75 2.25H20.25V6.75H33.75V2.25ZM42.8175 16.6275L46.0125 13.4325C45.045 12.285 43.9875 11.205 42.84 10.26L39.645 13.455C36.0615 10.5712 31.5997 8.9993 27 9C15.8175 9 6.75 18.0675 6.75 29.25C6.75 40.4325 15.795 49.5 27 49.5C30.8122 49.5021 34.5474 48.4273 37.7755 46.3994C41.0036 44.3716 43.5933 41.4731 45.2462 38.0379C46.8992 34.6027 47.5482 30.7705 47.1185 26.9826C46.6888 23.1947 45.1979 19.6052 42.8175 16.6275ZM27 45C18.2925 45 11.25 37.9575 11.25 29.25C11.25 20.5425 18.2925 13.5 27 13.5C35.7075 13.5 42.75 20.5425 42.75 29.25C42.75 37.9575 35.7075 45 27 45ZM26.28 33.75H14.2875C14.9251 35.5529 15.939 37.1996 17.2619 38.5806C18.5847 39.9616 20.1862 41.0454 21.96 41.76L21.7125 41.625L26.28 33.75ZM39.7125 24.75C39.0843 22.9719 38.0912 21.3447 36.797 19.973C35.5028 18.6014 33.9361 17.5154 32.1975 16.785L27.585 24.75H39.7125ZM23.8725 42.3675C24.885 42.615 25.92 42.75 27 42.75C30.015 42.75 32.7825 41.7375 35.0325 40.0725L30.285 31.2975L23.8725 42.3675ZM16.9875 20.2275C14.7439 22.697 13.5006 25.9136 13.5 29.25C13.5 30.015 13.59 30.7575 13.7025 31.5H24.3225L16.9875 20.2275ZM36.765 38.5425C39.1674 36.0462 40.5065 32.7145 40.5 29.25C40.5 28.485 40.41 27.7425 40.2975 27H30.5325L36.765 38.5425ZM29.9925 16.0875C29.025 15.885 28.035 15.75 27 15.75C23.85 15.75 20.9475 16.8525 18.6525 18.6525L23.8725 26.6625L29.9925 16.0875Z" fill="#FCAD00"/>
</svg>
