<svg width="17" height="19" viewBox="0 0 17 19" fill="none" xmlns="http://www.w3.org/2000/svg">
<path d="M15.3031 1.67716H14.4698V0.010498H12.8031V1.67716H4.46975V0.010498H2.80309V1.67716H1.96975C1.52772 1.67716 1.1038 1.85276 0.791241 2.16532C0.47868 2.47788 0.303085 2.9018 0.303085 3.34383V16.6772C0.303085 17.1192 0.47868 17.5431 0.791241 17.8557C1.1038 18.1682 1.52772 18.3438 1.96975 18.3438H15.3031C15.7451 18.3438 16.169 18.1682 16.4816 17.8557C16.7942 17.5431 16.9698 17.1192 16.9698 16.6772V3.34383C16.9698 2.9018 16.7942 2.47788 16.4816 2.16532C16.169 1.85276 15.7451 1.67716 15.3031 1.67716ZM4.91142 16.6772H1.96975V13.7355L9.81142 5.89383L12.7531 8.8355L4.91142 16.6772ZM15.0698 6.51883L13.5364 8.05217L10.5948 5.1105L12.1364 3.57717C12.2079 3.50358 12.2934 3.44509 12.3878 3.40514C12.4823 3.36519 12.5838 3.34461 12.6864 3.34461C12.789 3.34461 12.8905 3.36519 12.985 3.40514C13.0795 3.44509 13.165 3.50358 13.2364 3.57717L15.0698 5.4105C15.1426 5.48325 15.2003 5.56963 15.2398 5.66472C15.2792 5.75981 15.2995 5.86173 15.2995 5.96467C15.2995 6.0676 15.2792 6.16952 15.2398 6.26461C15.2003 6.3597 15.1426 6.44608 15.0698 6.51883Z" fill="#FBAC05"/>
</svg>
