<svg width="24" height="24" viewBox="0 0 24 24" fill="none" xmlns="http://www.w3.org/2000/svg">
<path d="M2.11397 5.53601C2.02983 5.69777 1.99133 5.8794 2.00261 6.06139C2.01389 6.24338 2.07451 6.41886 2.17797 6.569L11.178 19.569C11.27 19.7018 11.3929 19.8104 11.536 19.8854C11.6792 19.9604 11.8384 19.9995 12 19.9995C12.1616 19.9995 12.3208 19.9604 12.4639 19.8854C12.6071 19.8104 12.7299 19.7018 12.822 19.569L21.822 6.56901C21.9265 6.41915 21.9879 6.24346 21.9995 6.0611C22.011 5.87874 21.9723 5.69671 21.8875 5.53486C21.8027 5.373 21.6751 5.23753 21.5186 5.14322C21.3621 5.0489 21.1827 4.99937 21 5.00001L2.99997 5.00001C2.81744 4.99998 2.63837 5.04991 2.48219 5.14439C2.32601 5.23888 2.19867 5.37431 2.11397 5.53601ZM19.091 7.00001L12 17.243L4.90897 7.00001L19.091 7.00001Z" fill="#FCAD00"/>
</svg>
