<svg width="126" height="50" viewBox="0 0 126 50" fill="none" xmlns="http://www.w3.org/2000/svg">
<path d="M59.2628 24.3104V38.8964H54.6355V2.87547H66.9079C68.3728 2.84487 69.8292 3.10468 71.1932 3.6399C72.5571 4.17512 73.8016 4.97516 74.8547 5.99385C75.9185 6.9507 76.7651 8.12416 77.3377 9.43538C77.9102 10.7466 78.1955 12.1652 78.1743 13.5958C78.2047 15.0341 77.9239 16.462 77.3509 17.7815C76.7779 19.1011 75.9264 20.2812 74.8547 21.2409C72.7087 23.2873 70.0598 24.3095 66.9079 24.3076H59.2628V24.3104ZM59.2628 7.31019V19.8843H67.0228C67.8736 19.9095 68.7202 19.7569 69.5086 19.4362C70.2969 19.1155 71.0097 18.6338 71.6012 18.0219C72.1897 17.4498 72.6575 16.7655 72.9769 16.0094C73.2963 15.2534 73.4609 14.441 73.4609 13.6203C73.4609 12.7995 73.2963 11.9871 72.9769 11.2311C72.6575 10.475 72.1897 9.79071 71.6012 9.21858C71.0171 8.59378 70.3068 8.10026 69.5175 7.77076C68.7282 7.44125 67.8778 7.28328 67.0228 7.30731H59.2628V7.31019Z" fill="#FFF6E2"/>
<path d="M88.8372 13.4463C92.2574 13.4463 94.9571 14.3602 96.9364 16.1882C98.9157 18.0161 99.9044 20.5223 99.9025 23.7068V38.8964H95.4764V35.4762H95.2752C93.3591 38.2928 90.8108 39.7011 87.6301 39.7011C84.9151 39.7011 82.6436 38.8964 80.8157 37.2869C79.9384 36.5482 79.2371 35.623 78.7628 34.5789C78.2884 33.5347 78.053 32.3979 78.0738 31.2513C78.0738 28.701 79.0375 26.6728 80.9651 25.1668C82.8927 23.6608 85.4659 22.9059 88.6849 22.902C91.4325 22.902 93.6954 23.405 95.4735 24.4109V23.3533C95.4787 22.5716 95.31 21.7985 94.9794 21.0901C94.6488 20.3817 94.1647 19.7558 93.5622 19.2577C92.3386 18.1537 90.7439 17.5513 89.0959 17.5706C86.5111 17.5706 84.4657 18.6608 82.9597 20.8413L78.8843 18.2748C81.1261 15.0558 84.4437 13.4463 88.8372 13.4463ZM82.8505 31.3519C82.8474 31.9408 82.9851 32.5219 83.252 33.0468C83.519 33.5718 83.9075 34.0253 84.3853 34.3697C85.4087 35.1747 86.6789 35.6011 87.9808 35.5768C89.9334 35.5735 91.8051 34.7963 93.1857 33.4155C94.7186 31.9727 95.485 30.2798 95.485 28.3369C94.0422 27.1873 92.0304 26.6125 89.4494 26.6125C87.5698 26.6125 86.0024 27.0656 84.7474 27.9719C83.4799 28.8916 82.8505 30.0097 82.8505 31.3519V31.3519Z" fill="#FFF6E2"/>
<path d="M125.309 14.2511L109.858 49.7605H105.081L110.815 37.3358L100.655 14.2511H105.685L113.028 31.9555H113.129L120.271 14.2511H125.309Z" fill="#FFF6E2"/>
<path d="M40.5638 21.1662C40.5656 19.756 40.4463 18.3483 40.2075 16.9585H20.6924V24.9283H31.8697C31.641 26.2012 31.1569 27.4147 30.4466 28.4954C29.7363 29.5762 28.8145 30.5019 27.7368 31.2169V36.3902H34.4075C38.3134 32.789 40.5638 27.4633 40.5638 21.1662Z" fill="#FFF6E2"/>
<path d="M20.6924 41.3883C26.2767 41.3883 30.9788 39.5547 34.4075 36.3932L27.7368 31.2198C25.8801 32.4787 23.4889 33.1972 20.6924 33.1972C15.2948 33.1972 10.7135 29.5586 9.07532 24.6554H2.20337V29.9868C3.92572 33.4141 6.56675 36.2953 9.83161 38.3086C13.0965 40.3219 16.8567 41.3882 20.6924 41.3883V41.3883Z" fill="#FFF6E2"/>
<path d="M9.07543 24.6553C8.20936 22.0859 8.20936 19.3036 9.07543 16.7343V11.4028H2.20348C0.754586 14.286 0 17.468 0 20.6948C0 23.9215 0.754586 27.1035 2.20348 29.9867L9.07543 24.6553Z" fill="#FFF6E2"/>
<path d="M20.6924 8.19251C23.6435 8.1443 26.495 9.25931 28.6306 11.2965L34.5369 5.39028C30.7917 1.87261 25.8302 -0.0586506 20.6924 0.00135768C16.8567 0.0015325 13.0965 1.0678 9.83161 3.08112C6.56675 5.09445 3.92572 7.97558 2.20337 11.4029L9.07532 16.7343C10.7135 11.8311 15.2948 8.19251 20.6924 8.19251Z" fill="#FFF6E2"/>
</svg>
