<svg width="79" height="32" viewBox="0 0 79 32" fill="none" xmlns="http://www.w3.org/2000/svg">
<path d="M37.3549 15.3236V24.5175H34.4382V1.81256H42.1738C43.0972 1.79327 44.0152 1.95704 44.875 2.2944C45.7347 2.63177 46.5191 3.13606 47.183 3.77816C47.8535 4.38129 48.3871 5.12095 48.748 5.94745C49.1089 6.77395 49.2887 7.66813 49.2754 8.56989C49.2946 9.47647 49.1175 10.3765 48.7564 11.2083C48.3952 12.04 47.8585 12.7839 47.183 13.3888C45.8303 14.6787 44.1606 15.323 42.1738 15.3218H37.3549V15.3236ZM37.3549 4.60788V12.5337H42.2463C42.7825 12.5496 43.3162 12.4534 43.8131 12.2513C44.3101 12.0491 44.7593 11.7455 45.1322 11.3598C45.5031 10.9992 45.798 10.5678 45.9993 10.0913C46.2006 9.61471 46.3044 9.10262 46.3044 8.58529C46.3044 8.06795 46.2006 7.55586 45.9993 7.07931C45.798 6.60276 45.5031 6.17142 45.1322 5.8108C44.764 5.41696 44.3163 5.10589 43.8188 4.89819C43.3212 4.6905 42.7852 4.59092 42.2463 4.60607H37.3549V4.60788Z" fill="#707070"/>
<path d="M55.9965 8.47571C58.1523 8.47571 59.854 9.0518 61.1016 10.204C62.3492 11.3562 62.9724 12.9359 62.9712 14.9432V24.5176H60.1813V22.3617H60.0545C58.8468 24.1371 57.2405 25.0248 55.2356 25.0248C53.5242 25.0248 52.0924 24.5176 50.9403 23.5031C50.3873 23.0374 49.9452 22.4543 49.6463 21.7961C49.3473 21.138 49.1989 20.4214 49.212 19.6987C49.212 18.0912 49.8195 16.8128 51.0345 15.8635C52.2495 14.9142 53.8715 14.4383 55.9005 14.4359C57.6324 14.4359 59.0587 14.753 60.1795 15.387V14.7203C60.1828 14.2276 60.0764 13.7403 59.868 13.2938C59.6597 12.8473 59.3545 12.4528 58.9748 12.1388C58.2035 11.4429 57.1983 11.0632 56.1595 11.0754C54.5303 11.0754 53.241 11.7626 52.2917 13.137L49.7229 11.5192C51.1359 9.49021 53.2271 8.47571 55.9965 8.47571ZM52.2229 19.7621C52.2209 20.1333 52.3077 20.4996 52.476 20.8305C52.6442 21.1613 52.8892 21.4472 53.1903 21.6643C53.8354 22.1717 54.636 22.4405 55.4566 22.4251C56.6874 22.4231 57.8672 21.9332 58.7375 21.0628C59.7036 20.1534 60.1867 19.0863 60.1867 17.8617C59.2773 17.137 58.0092 16.7747 56.3824 16.7747C55.1976 16.7747 54.2096 17.0604 53.4185 17.6316C52.6196 18.2113 52.2229 18.916 52.2229 19.7621Z" fill="#707070"/>
<path d="M78.9858 8.98297L69.2466 31.3655H66.2357L69.8499 23.5339L63.4458 8.98297H66.6161L71.2448 20.1425H71.3082L75.8101 8.98297H78.9858Z" fill="#707070"/>
<path d="M25.5685 13.3417C25.5696 12.4529 25.4945 11.5655 25.3439 10.6895H13.043V15.7131H20.0884C19.9442 16.5155 19.6391 17.2803 19.1914 17.9615C18.7436 18.6428 18.1626 19.2263 17.4833 19.6769V22.9378H21.6881C24.15 20.6679 25.5685 17.311 25.5685 13.3417Z" fill="#707070"/>
<path d="M13.043 26.0882C16.563 26.0882 19.5268 24.9324 21.6881 22.9397L17.4833 19.6787C16.313 20.4722 14.8057 20.9251 13.043 20.9251C9.64083 20.9251 6.75311 18.6316 5.72049 15.541H1.38892V18.9016C2.47456 21.0619 4.13927 22.8779 6.1972 24.147C8.25513 25.416 10.6253 26.0881 13.043 26.0882Z" fill="#707070"/>
<path d="M5.72049 15.541C5.17458 13.9215 5.17458 12.1677 5.72049 10.5482V7.18762H1.38891C0.475636 9.00495 0 11.0107 0 13.0446C0 15.0785 0.475636 17.0842 1.38891 18.9015L5.72049 15.541Z" fill="#707070"/>
<path d="M13.043 5.16408C14.9032 5.13369 16.7006 5.83651 18.0467 7.12063L21.7696 3.39776C19.4089 1.18048 16.2815 -0.036847 13.043 0.000977855C10.6253 0.00108805 8.25513 0.673186 6.1972 1.94224C4.13927 3.21129 2.47456 5.02734 1.38892 7.18766L5.72049 10.5482C6.75311 7.45759 9.64083 5.16408 13.043 5.16408Z" fill="#707070"/>
</svg>
