<svg width="53" height="52" viewBox="0 0 53 52" fill="none" xmlns="http://www.w3.org/2000/svg">
<path d="M39.3527 43.3333H13.3527V47.6667H9.01937V43.3333H6.8527C6.27807 43.3333 5.72697 43.1051 5.32064 42.6987C4.91431 42.2924 4.68604 41.7413 4.68604 41.1667V8.66667C4.68604 8.09203 4.91431 7.54093 5.32064 7.1346C5.72697 6.72827 6.27807 6.5 6.8527 6.5H45.8527C46.4273 6.5 46.9784 6.72827 47.3848 7.1346C47.7911 7.54093 48.0194 8.09203 48.0194 8.66667V41.1667C48.0194 41.7413 47.7911 42.2924 47.3848 42.6987C46.9784 43.1051 46.4273 43.3333 45.8527 43.3333H43.686V47.6667H39.3527V43.3333ZM24.186 30.0603V36.8333H28.5194V30.0603C30.5571 29.5279 32.3314 28.272 33.5109 26.5272C34.6905 24.7824 35.1947 22.6679 34.9293 20.5785C34.664 18.4892 33.6472 16.5678 32.069 15.1732C30.4907 13.7786 28.4588 13.0061 26.3527 13C24.2418 12.9979 22.2027 13.7663 20.6181 15.161C19.0336 16.5556 18.0125 18.4807 17.7465 20.5748C17.4806 22.6689 17.988 24.788 19.1737 26.5345C20.3593 28.281 22.1416 29.5347 24.186 30.0603ZM26.3527 26C25.2034 26 24.1012 25.5435 23.2886 24.7308C22.4759 23.9181 22.0194 22.8159 22.0194 21.6667C22.0194 20.5174 22.4759 19.4152 23.2886 18.6025C24.1012 17.7899 25.2034 17.3333 26.3527 17.3333C27.502 17.3333 28.6042 17.7899 29.4168 18.6025C30.2295 19.4152 30.686 20.5174 30.686 21.6667C30.686 22.8159 30.2295 23.9181 29.4168 24.7308C28.6042 25.5435 27.502 26 26.3527 26Z" fill="#FCAD00"/>
</svg>
