<svg width="55" height="54" viewBox="0 0 55 54" fill="none" xmlns="http://www.w3.org/2000/svg">
<path d="M4.85254 40.5H20.6025V45H4.85254V40.5ZM4.85254 24.75H25.1025V29.25H4.85254V24.75ZM4.85254 9H49.8525V13.5H4.85254V9ZM46.869 29.3062L49.47 28.4265L51.72 32.3235L49.659 34.1347C49.9185 35.3647 49.9185 36.6353 49.659 37.8653L51.72 39.6765L49.47 43.5735L46.869 42.6938C45.9465 43.5263 44.8485 44.1675 43.6403 44.5612L43.1025 47.25H38.6025L38.0625 44.559C36.8684 44.1688 35.7693 43.5326 34.836 42.6915L32.235 43.5735L29.985 39.6765L32.046 37.8653C31.7866 36.6353 31.7866 35.3647 32.046 34.1347L29.985 32.3235L32.235 28.4265L34.836 29.3062C35.7585 28.4737 36.8565 27.8325 38.0648 27.4387L38.6025 24.75H43.1025L43.6425 27.441C44.8485 27.8325 45.9465 28.476 46.869 29.3085V29.3062ZM40.8525 38.25C41.4493 38.25 42.0216 38.0129 42.4435 37.591C42.8655 37.169 43.1025 36.5967 43.1025 36C43.1025 35.4033 42.8655 34.831 42.4435 34.409C42.0216 33.9871 41.4493 33.75 40.8525 33.75C40.2558 33.75 39.6835 33.9871 39.2615 34.409C38.8396 34.831 38.6025 35.4033 38.6025 36C38.6025 36.5967 38.8396 37.169 39.2615 37.591C39.6835 38.0129 40.2558 38.25 40.8525 38.25Z" fill="#FCAD00"/>
</svg>
