<svg width="48" height="55" viewBox="0 0 48 55" fill="none" xmlns="http://www.w3.org/2000/svg">
<path d="M36.7817 7.74023L36.8079 7.72715H36.8209L23.8528 0.28125L10.8912 7.72715H10.8781L10.9239 7.74678L0.265381 13.8906V41.1094L23.8528 54.7188L47.4402 41.1094V13.8906L36.7817 7.74023ZM21.9357 49.1965L12.5727 43.792V34.658L4.09302 29.8424V18.3987L21.9357 28.6908V49.1965ZM5.93813 15.0356L14.7515 9.94521L23.8397 15.16L32.941 9.93213L41.7871 15.0356L23.8659 25.3735L5.93813 15.0356ZM43.6125 29.8751L35.1852 34.658V43.7593L25.7699 49.1899V28.7039L43.6125 18.4118V29.8751Z" fill="#FCAD00"/>
</svg>
