<svg width="46" height="46" viewBox="0 0 46 46" fill="none" xmlns="http://www.w3.org/2000/svg">
<path d="M5.75 0V5.75H0V9.58333H5.75V15.3333H9.58333V9.58333H15.3333V5.75H9.58333V0H5.75ZM17.25 5.75V11.5H11.5V17.25H5.75V36.4167C5.75 37.4333 6.15387 38.4084 6.87276 39.1272C7.59165 39.8461 8.56667 40.25 9.58333 40.25H36.4167C38.5442 40.25 40.25 38.5442 40.25 36.4167V34.5H23C21.9833 34.5 21.0083 34.0961 20.2894 33.3772C19.5705 32.6584 19.1667 31.6833 19.1667 30.6667V15.3333C19.1667 14.3167 19.5705 13.3416 20.2894 12.6228C21.0083 11.9039 21.9833 11.5 23 11.5H40.25V9.58333C40.25 8.56667 39.8461 7.59165 39.1272 6.87276C38.4084 6.15387 37.4333 5.75 36.4167 5.75H17.25ZM23 15.3333V30.6667H42.1667V15.3333H23ZM30.6667 20.125C32.2575 20.125 33.5417 21.4092 33.5417 23C33.5417 24.5908 32.2575 25.875 30.6667 25.875C29.0758 25.875 27.7917 24.5908 27.7917 23C27.7917 21.4092 29.0758 20.125 30.6667 20.125Z" fill="#FCAD00"/>
</svg>
