<svg width="46" height="46" viewBox="0 0 46 46" fill="none" xmlns="http://www.w3.org/2000/svg">
<g clip-path="url(#clip0_659_333)">
<path d="M6.8425 0C6.21 0 5.75 0.46 5.75 1.0925V44.965C5.75 45.5975 6.21 46.0575 6.8425 46.0575H33.465C34.0975 46.0575 34.5575 45.5975 34.5575 44.965V1.0925C34.5575 0.46 34.0975 0 33.465 0H6.8425ZM11.5 5.75H28.75V34.5H11.5V5.75ZM20.125 37.375C21.735 37.375 23 38.64 23 40.25C23 41.86 21.735 43.125 20.125 43.125C18.515 43.125 17.25 41.86 17.25 40.25C17.25 38.64 18.515 37.375 20.125 37.375Z" fill="#FCAD00"/>
</g>
<defs>
<clipPath id="clip0_659_333">
<rect width="46" height="46" fill="white"/>
</clipPath>
</defs>
</svg>
