<svg width="50" height="49" viewBox="0 0 50 49" fill="none" xmlns="http://www.w3.org/2000/svg">
<path d="M23.5507 38.22C19.8731 38.0461 16.4037 36.4614 13.8633 33.7951C11.323 31.1289 9.90683 27.586 9.9091 23.9024C9.9091 15.9907 16.3357 9.56098 24.2436 9.56098C31.9364 9.56098 38.1958 15.6083 38.5541 23.2093L33.5371 21.7034C33.1466 20.0465 32.3209 18.5239 31.1453 17.2931C29.9697 16.0623 28.4869 15.168 26.8502 14.7026C25.2134 14.2372 23.4821 14.2175 21.8353 14.6457C20.1884 15.0738 18.6857 15.9343 17.4825 17.1381C16.2793 18.3418 15.4193 19.8453 14.9913 21.493C14.5634 23.1406 14.583 24.8728 15.0482 26.5103C15.5134 28.1478 16.4073 29.6314 17.6375 30.8075C18.8676 31.9837 20.3895 32.8098 22.0456 33.2005L23.5507 38.22ZM48.1343 23.9024C48.1343 24.6195 48.1105 25.3366 48.0388 26.0537L43.3323 24.6434C43.3562 24.4044 43.3562 24.1415 43.3562 23.9024C43.3562 13.3376 34.8033 4.78049 24.2436 4.78049C13.6838 4.78049 5.13094 13.3376 5.13094 23.9024C5.13094 34.4673 13.6838 43.0244 24.2436 43.0244C24.4825 43.0244 24.7453 43.0244 24.9842 43.0005L26.3937 47.7093C25.677 47.781 24.9603 47.8049 24.2436 47.8049C11.0559 47.8049 0.352783 37.0966 0.352783 23.9024C0.352783 10.7083 11.0559 0 24.2436 0C37.4313 0 48.1343 10.7083 48.1343 23.9024ZM39.1275 34.0849L48.1343 31.0732L24.2436 23.9024L31.4108 47.8049L34.421 38.7937L44.6224 49L49.3528 44.2673L39.1275 34.0849Z" fill="#FCAD00"/>
</svg>
