<svg width="22" height="22" viewBox="0 0 22 22" fill="none" xmlns="http://www.w3.org/2000/svg">
<path d="M18.3792 10.0833H3.62083C3.13989 10.0833 2.75 10.4731 2.75 10.9541V11.0458C2.75 11.5267 3.13989 11.9166 3.62083 11.9166H18.3792C18.8601 11.9166 19.25 11.5267 19.25 11.0458V10.9541C19.25 10.4731 18.8601 10.0833 18.3792 10.0833Z" fill="white"/>
<path d="M18.3792 14.6667H3.62083C3.13989 14.6667 2.75 15.0566 2.75 15.5376V15.6292C2.75 16.1102 3.13989 16.5001 3.62083 16.5001H18.3792C18.8601 16.5001 19.25 16.1102 19.25 15.6292V15.5376C19.25 15.0566 18.8601 14.6667 18.3792 14.6667Z" fill="white"/>
<path d="M18.3792 5.5H3.62083C3.13989 5.5 2.75 5.88989 2.75 6.37083V6.4625C2.75 6.94345 3.13989 7.33333 3.62083 7.33333H18.3792C18.8601 7.33333 19.25 6.94345 19.25 6.4625V6.37083C19.25 5.88989 18.8601 5.5 18.3792 5.5Z" fill="white"/>
</svg>
