<svg width="19" height="19" viewBox="0 0 19 19" fill="none" xmlns="http://www.w3.org/2000/svg">
<path d="M4.42508 18.3745H0.61555V6.10657H4.42508V18.3745ZM2.51802 4.43314C1.30002 4.43314 0.311707 3.42382 0.311707 2.20582C0.311707 1.62067 0.544157 1.05949 0.957921 0.645726C1.37168 0.231962 1.93287 -0.000488281 2.51802 -0.000488281C3.10317 -0.000488281 3.66435 0.231962 4.07812 0.645726C4.49188 1.05949 4.72433 1.62067 4.72433 2.20582C4.72433 3.42382 3.73602 4.43314 2.51802 4.43314ZM18.6828 18.3745H14.8818V12.4026C14.8818 10.9792 14.8529 9.1542 12.9012 9.1542C10.9206 9.1542 10.6168 10.7003 10.6168 12.3003V18.3745H6.81121V6.10657H10.4646V7.78001H10.5177C11.0263 6.81598 12.2686 5.79879 14.1218 5.79879C17.9773 5.79879 18.6861 8.33782 18.6861 11.6355V18.3745H18.6828Z" fill="#FCAD00"/>
</svg>
