<svg width="462" height="128" viewBox="0 0 462 128" fill="none" xmlns="http://www.w3.org/2000/svg">
<path d="M315.218 59.6072C315.218 52.2383 321.237 46.1463 328.606 46.1463C330.868 46.1463 332.728 44.3953 332.728 42.1336C332.728 39.8718 330.868 37.8655 328.606 37.8655C316.677 37.8655 306.937 47.569 306.937 59.5342L306.974 77.0078C306.974 78.5399 307.813 79.9626 309.199 80.6557C310.585 81.3488 312.19 81.2759 313.467 80.4004C314.561 79.6343 315.218 78.3575 315.254 77.0443V59.6072H315.218Z" fill="white"/>
<path d="M379.422 42.7174C387.265 49.0283 389.672 59.9356 385.295 69.019C380.881 78.0659 370.812 82.9176 360.999 80.6194C351.187 78.3577 344.219 69.6391 344.219 59.5708V15.3944C344.219 13.1327 346.116 11.2722 348.378 11.2722C350.639 11.2722 352.463 13.1327 352.463 15.3944V42.608C360.379 36.37 371.578 36.4065 379.422 42.7174ZM379.166 59.5708C379.166 52.202 373.184 46.2194 365.815 46.2194C358.446 46.2194 352.463 52.202 352.463 59.5708C352.463 66.9397 358.446 72.9223 365.815 72.9223C373.184 72.9223 379.166 66.9397 379.166 59.5708Z" fill="#E8AB00"/>
<path d="M165.434 42.7174C173.277 49.0283 175.684 59.9356 171.307 69.019C166.893 78.0659 156.825 82.9176 147.012 80.6194C137.199 78.3577 130.231 69.6391 130.231 59.5708V15.3944C130.231 13.1327 132.128 11.2722 134.39 11.2722C136.652 11.2722 138.476 13.1327 138.476 15.3944V42.608C146.392 36.37 157.591 36.4065 165.434 42.7174ZM165.215 59.5708C165.215 52.202 159.232 46.2194 151.863 46.2194C144.495 46.2194 138.512 52.202 138.512 59.5708C138.512 66.9397 144.495 72.9223 151.863 72.9223C159.232 72.9223 165.215 66.9397 165.215 59.5708Z" fill="white"/>
<path d="M401.455 59.4977C401.455 52.1289 407.474 46.1463 414.843 46.1463C417.105 46.1463 418.965 44.2858 418.965 42.0241C418.965 39.7624 417.105 37.8655 414.843 37.8655C402.914 37.8655 393.174 47.569 393.174 59.5342V77.0443C393.174 79.306 395.071 81.13 397.333 81.13C399.595 81.13 401.455 79.306 401.455 77.0443V59.4977Z" fill="#E8AB00"/>
<path d="M439.868 37.8291C427.939 37.8291 418.236 47.5326 418.236 59.4613C418.236 71.3901 427.939 81.0936 439.868 81.0936C451.797 81.0936 461.5 71.3901 461.5 59.4613C461.5 47.5326 451.797 37.8291 439.868 37.8291ZM439.868 72.7763C432.499 72.7763 426.516 66.7937 426.516 59.4249C426.516 52.056 432.499 46.0734 439.868 46.0734C447.237 46.0734 453.219 52.056 453.219 59.4249C453.219 66.8302 447.237 72.7763 439.868 72.7763Z" fill="#E8AB00"/>
<path d="M299.897 60.665C298.802 59.6071 297.27 59.2423 295.847 59.7166C294.425 60.1543 293.33 61.3217 293.039 62.8173C292.09 66.976 289.245 70.2226 285.305 71.9007C281.365 73.5787 276.878 73.2504 273.194 71.0616L298.839 48.8457C293.659 39.8718 282.824 35.8226 273.011 39.1787C263.198 42.5713 257.179 52.4207 258.675 62.7079C260.134 72.9586 268.707 80.7287 279.067 81.2394C289.427 81.7501 298.693 74.819 301.1 64.7142C301.429 63.2186 300.954 61.6864 299.897 60.665ZM271.297 49.5024C275.674 45.7085 281.949 45.1613 286.91 48.1526L267.758 64.7872C265.497 59.4612 266.919 53.2962 271.297 49.5024Z" fill="white"/>
<path d="M220.736 60.738C219.642 59.7166 218.11 59.3518 216.687 59.7896C215.265 60.2273 214.17 61.4311 213.878 62.8903C212.93 67.049 210.084 70.2956 206.145 71.9737C202.205 73.6517 197.718 73.3234 194.034 71.1346L219.679 48.8822C214.498 39.9083 203.664 35.8591 193.851 39.2517C184.038 42.6443 178.019 52.4937 179.515 62.7444C180.974 72.9951 189.547 80.8017 199.907 81.2759C210.267 81.7866 219.533 74.8555 221.94 64.7508C222.269 63.2916 221.794 61.7594 220.736 60.738ZM192.137 49.5754C196.514 45.7815 202.825 45.2343 207.75 48.1891L188.598 64.8237C186.336 59.4977 187.759 53.3692 192.137 49.5754Z" fill="white"/>
<path d="M244.302 77.1173C244.302 79.379 246.199 81.203 248.461 81.203C250.722 81.203 252.583 79.3425 252.583 77.0808V38.0114L257.653 37.9749C259.915 37.9749 261.812 36.078 261.812 33.8163C261.812 31.5546 259.952 29.6941 257.69 29.6941H252.583V15.3942C252.583 13.1325 250.722 11.2356 248.461 11.2356C246.199 11.2356 244.302 13.096 244.302 15.3942V29.6941H236.021V15.3942C236.021 13.1325 234.234 11.2356 231.936 11.2356C229.674 11.2356 227.777 13.096 227.777 15.3942L227.74 29.6941H222.706C220.445 29.6941 218.584 31.5546 218.584 33.8163C218.584 36.078 220.408 37.9749 222.67 37.9749H227.74V77.0808C227.74 79.3425 229.637 81.1665 231.899 81.1665C234.161 81.1665 235.985 79.3425 235.985 77.0808V37.9749H244.266V77.1173H244.302Z" fill="white"/>
<path d="M102.762 34.6189C108.781 34.6189 113.633 39.4706 113.633 45.4532C113.633 76.862 88.207 102.288 56.8348 102.288C25.4261 102.288 0 76.862 0 45.4532V10.8708C0 4.85176 4.85175 0 10.8708 0C16.8534 0 21.7417 4.85176 21.7417 10.8708V45.4532C21.7417 64.8603 37.4278 80.5828 56.8713 80.5828C76.2783 80.5828 91.9644 64.8967 91.9644 45.4532C91.9279 39.4706 96.8161 34.6189 102.762 34.6189Z" fill="#E8AB00"/>
<path d="M56.8349 23.7844C68.8001 23.7844 78.5036 33.4879 78.5036 45.4531C78.5036 57.4548 68.8001 67.1219 56.8349 67.1219C44.8332 67.1219 35.1661 57.4184 35.1661 45.4531C35.1661 33.4879 44.8332 23.7844 56.8349 23.7844Z" fill="#E8AB00"/>
<g clip-path="url(#clip0_992_1486)">
<path d="M250.832 121.52C247.819 121.52 245.31 120.525 243.308 118.536C241.325 116.527 240.333 113.991 240.333 110.928C240.333 107.866 241.325 105.34 243.308 103.35C245.31 101.341 247.819 100.336 250.832 100.336C252.426 100.336 253.904 100.649 255.265 101.273C256.626 101.897 257.763 102.784 258.677 103.935C259.611 105.086 260.252 106.422 260.602 107.944H257.219C256.733 106.578 255.926 105.515 254.798 104.755C253.671 103.974 252.349 103.584 250.832 103.584C248.791 103.584 247.099 104.277 245.758 105.662C244.416 107.047 243.745 108.812 243.745 110.958C243.745 113.084 244.416 114.839 245.758 116.224C247.099 117.59 248.791 118.272 250.832 118.272C252.388 118.272 253.739 117.863 254.886 117.044C256.033 116.205 256.83 115.064 257.277 113.62H260.69C260.165 116.02 259.008 117.941 257.219 119.384C255.43 120.808 253.301 121.52 250.832 121.52ZM263.939 121.169V99.6927H267.176V121.169H263.939ZM271.713 102.911V99.5757H275.066V102.911H271.713ZM271.771 121.169V105.369H275.008V121.169H271.771ZM286.69 121.55C284.357 121.55 282.393 120.76 280.799 119.18C279.224 117.58 278.437 115.61 278.437 113.269C278.437 110.909 279.224 108.939 280.799 107.359C282.393 105.779 284.367 104.989 286.719 104.989C288.644 104.989 290.316 105.535 291.735 106.627C293.155 107.72 294.078 109.173 294.506 110.987H291.298C290.89 110.09 290.277 109.387 289.461 108.88C288.644 108.354 287.72 108.09 286.69 108.09C285.776 108.09 284.94 108.315 284.182 108.763C283.424 109.212 282.821 109.836 282.374 110.636C281.946 111.416 281.732 112.294 281.732 113.269C281.732 114.732 282.208 115.961 283.161 116.956C284.114 117.951 285.29 118.448 286.69 118.448C287.72 118.448 288.634 118.185 289.431 117.658C290.248 117.131 290.87 116.38 291.298 115.405H294.564C294.117 117.258 293.174 118.75 291.735 119.882C290.316 120.994 288.634 121.55 286.69 121.55ZM307.982 121.169L303.286 114.439H301.303V121.169H298.066V99.6927H301.303V111.484H303.286L307.544 105.369H311.394L306.057 112.947L311.948 121.169H307.982ZM313.912 121.169V117.424H317.47V121.169H313.912ZM336.862 100.688C338.164 100.688 339.341 100.98 340.391 101.565C341.46 102.151 342.296 102.96 342.899 103.994C343.501 105.028 343.803 106.179 343.803 107.446C343.803 109.378 343.142 110.987 341.82 112.274C340.498 113.562 338.845 114.205 336.862 114.205H332.662V121.169H329.308V100.688H336.862ZM336.687 111.016C337.231 111.016 337.727 110.928 338.174 110.753C338.641 110.577 339.039 110.333 339.37 110.021C339.7 109.709 339.953 109.329 340.128 108.88C340.323 108.432 340.42 107.954 340.42 107.446C340.42 106.764 340.254 106.159 339.924 105.632C339.613 105.086 339.175 104.657 338.612 104.345C338.048 104.033 337.406 103.877 336.687 103.877H332.662V111.016H336.687ZM359.971 105.369H362.479V121.169H359.854L359.533 119.238C358.017 120.779 356.121 121.55 353.846 121.55C351.494 121.55 349.53 120.76 347.955 119.18C346.4 117.6 345.622 115.629 345.622 113.269C345.622 110.889 346.4 108.919 347.955 107.359C349.53 105.779 351.494 104.989 353.846 104.989C356.16 104.989 358.075 105.769 359.592 107.329L359.971 105.369ZM350.376 116.985C351.367 117.96 352.602 118.448 354.079 118.448C355.577 118.448 356.801 117.96 357.754 116.985C358.726 115.99 359.212 114.752 359.212 113.269C359.212 111.767 358.726 110.528 357.754 109.553C356.801 108.578 355.577 108.09 354.079 108.09C353.107 108.09 352.223 108.315 351.426 108.763C350.648 109.212 350.035 109.836 349.588 110.636C349.141 111.416 348.917 112.294 348.917 113.269C348.917 114.752 349.403 115.99 350.376 116.985ZM378.323 105.369H381.794L374.561 121.462C373.647 123.471 372.714 124.866 371.761 125.646C370.828 126.446 369.574 126.845 367.999 126.845H366.395V123.92H367.736C368.767 123.92 369.525 123.715 370.011 123.305C370.498 122.895 371.032 122.047 371.615 120.76L371.965 120.028L365.112 105.369H368.641L373.628 116.4L378.323 105.369ZM382.094 121.169V117.424H385.652V121.169H382.094ZM405.044 100.688C406.346 100.688 407.523 100.98 408.573 101.565C409.642 102.151 410.478 102.96 411.081 103.994C411.683 105.028 411.985 106.179 411.985 107.446C411.985 109.378 411.324 110.987 410.002 112.274C408.679 113.562 407.027 114.205 405.044 114.205H400.845V121.169H397.491V100.688H405.044ZM404.869 111.016C405.413 111.016 405.909 110.928 406.357 110.753C406.823 110.577 407.221 110.333 407.552 110.021C407.882 109.709 408.136 109.329 408.311 108.88C408.504 108.432 408.602 107.954 408.602 107.446C408.602 106.764 408.437 106.159 408.106 105.632C407.795 105.086 407.357 104.657 406.794 104.345C406.229 104.033 405.588 103.877 404.869 103.877H400.845V111.016H404.869ZM415.142 121.169V99.6927H418.379V121.169H415.142ZM436.155 105.369H438.663V121.169H436.038L435.718 119.238C434.201 120.779 432.305 121.55 430.031 121.55C427.679 121.55 425.714 120.76 424.14 119.18C422.585 117.6 421.806 115.629 421.806 113.269C421.806 110.889 422.585 108.919 424.14 107.359C425.714 105.779 427.679 104.989 430.031 104.989C432.345 104.989 434.259 105.769 435.776 107.329L436.155 105.369ZM426.56 116.985C427.552 117.96 428.787 118.448 430.264 118.448C431.762 118.448 432.987 117.96 433.939 116.985C434.912 115.99 435.397 114.752 435.397 113.269C435.397 111.767 434.912 110.528 433.939 109.553C432.987 108.578 431.762 108.09 430.264 108.09C429.292 108.09 428.408 108.315 427.61 108.763C426.833 109.212 426.221 109.836 425.773 110.636C425.326 111.416 425.102 112.294 425.102 113.269C425.102 114.752 425.588 115.99 426.56 116.985ZM454.509 105.369H457.979L450.746 121.462C449.832 123.471 448.899 124.866 447.947 125.646C447.013 126.446 445.759 126.845 444.185 126.845H442.581V123.92H443.922C444.952 123.92 445.71 123.715 446.197 123.305C446.682 122.895 447.218 122.047 447.801 120.76L448.151 120.028L441.297 105.369H444.826L449.813 116.4L454.509 105.369Z" fill="white"/>
</g>
<defs>
<clipPath id="clip0_992_1486">
<rect width="218.146" height="28.0891" fill="white" transform="translate(240.216 98.9319)"/>
</clipPath>
</defs>
</svg>
