<svg width="56" height="44" viewBox="0 0 56 44" fill="none" xmlns="http://www.w3.org/2000/svg">
<path d="M10.6741 42.8351V39.9857C10.6741 38.8935 10.0093 38.1811 8.86954 38.1811C8.29968 38.1811 7.68232 38.3711 7.25492 38.9885C6.9225 38.4661 6.44761 38.1811 5.73528 38.1811C5.26039 38.1811 4.7855 38.3236 4.40559 38.846V38.2761H3.40833V42.8351H4.40559V40.3181C4.40559 39.5108 4.83299 39.1309 5.49783 39.1309C6.16267 39.1309 6.4951 39.5583 6.4951 40.3181V42.8351H7.49237V40.3181C7.49237 39.5108 7.96725 39.1309 8.58461 39.1309C9.24945 39.1309 9.58187 39.5583 9.58187 40.3181V42.8351H10.6741ZM25.4431 38.2761H23.8285V36.899H22.8313V38.2761H21.929V39.1784H22.8313V41.2679C22.8313 42.3127 23.2587 42.93 24.3984 42.93C24.8258 42.93 25.3007 42.7876 25.6331 42.5976L25.3482 41.7428C25.0632 41.9328 24.7308 41.9803 24.4934 41.9803C24.0185 41.9803 23.8285 41.6953 23.8285 41.2204V39.1784H25.4431V38.2761ZM33.8962 38.1811C33.3263 38.1811 32.9464 38.4661 32.7089 38.846V38.2761H31.7117V42.8351H32.7089V40.2707C32.7089 39.5108 33.0414 39.0834 33.6587 39.0834C33.8487 39.0834 34.0861 39.1309 34.2761 39.1784L34.561 38.2286C34.371 38.1811 34.0861 38.1811 33.8962 38.1811ZM21.1217 38.656C20.6468 38.3236 19.9819 38.1811 19.2696 38.1811C18.1299 38.1811 17.37 38.751 17.37 39.6533C17.37 40.4131 17.9399 40.8405 18.9372 40.983L19.4121 41.0305C19.9344 41.1255 20.2194 41.2679 20.2194 41.5054C20.2194 41.8378 19.8395 42.0752 19.1746 42.0752C18.5098 42.0752 17.9874 41.8378 17.655 41.6003L17.1801 42.3602C17.7025 42.7401 18.4148 42.93 19.1271 42.93C20.4568 42.93 21.2166 42.3127 21.2166 41.4579C21.2166 40.6506 20.5993 40.2232 19.6495 40.0807L19.1746 40.0332C18.7472 39.9857 18.4148 39.8907 18.4148 39.6058C18.4148 39.2734 18.7472 39.0834 19.2696 39.0834C19.8395 39.0834 20.4093 39.3209 20.6943 39.4633L21.1217 38.656ZM47.6204 38.1811C47.0506 38.1811 46.6707 38.4661 46.4332 38.846V38.2761H45.4359V42.8351H46.4332V40.2707C46.4332 39.5108 46.7656 39.0834 47.383 39.0834C47.5729 39.0834 47.8104 39.1309 48.0003 39.1784L48.2853 38.2286C48.0953 38.1811 47.8104 38.1811 47.6204 38.1811ZM34.8934 40.5556C34.8934 41.9328 35.8432 42.93 37.3154 42.93C37.9802 42.93 38.4551 42.7876 38.93 42.4077L38.4551 41.6003C38.0752 41.8853 37.6953 42.0277 37.2679 42.0277C36.4606 42.0277 35.8907 41.4579 35.8907 40.5556C35.8907 39.7008 36.4606 39.1309 37.2679 39.0834C37.6953 39.0834 38.0752 39.2259 38.4551 39.5108L38.93 38.7035C38.4551 38.3236 37.9802 38.1811 37.3154 38.1811C35.8432 38.1811 34.8934 39.1784 34.8934 40.5556ZM44.1063 40.5556V38.2761H43.109V38.846C42.7766 38.4186 42.3017 38.1811 41.6843 38.1811C40.4021 38.1811 39.4049 39.1784 39.4049 40.5556C39.4049 41.9328 40.4021 42.93 41.6843 42.93C42.3492 42.93 42.8241 42.6926 43.109 42.2652V42.8351H44.1063V40.5556ZM40.4496 40.5556C40.4496 39.7483 40.972 39.0834 41.8268 39.0834C42.6341 39.0834 43.204 39.7008 43.204 40.5556C43.204 41.3629 42.6341 42.0277 41.8268 42.0277C40.972 41.9803 40.4496 41.3629 40.4496 40.5556ZM28.5299 38.1811C27.2002 38.1811 26.2505 39.1309 26.2505 40.5556C26.2505 41.9803 27.2002 42.93 28.5774 42.93C29.2423 42.93 29.9071 42.7401 30.4295 42.3127L29.9546 41.6003C29.5747 41.8853 29.0998 42.0752 28.6249 42.0752C28.0075 42.0752 27.3902 41.7903 27.2477 40.983H30.6194C30.6194 40.8405 30.6194 40.7455 30.6194 40.6031C30.6669 39.1309 29.8121 38.1811 28.5299 38.1811ZM28.5299 39.036C29.1473 39.036 29.5747 39.4159 29.6696 40.1282H27.2952C27.3902 39.5108 27.8176 39.036 28.5299 39.036ZM53.2716 40.5556V36.4716H52.2743V38.846C51.9419 38.4186 51.467 38.1811 50.8497 38.1811C49.5675 38.1811 48.5702 39.1784 48.5702 40.5556C48.5702 41.9328 49.5675 42.93 50.8497 42.93C51.5145 42.93 51.9894 42.6926 52.2743 42.2652V42.8351H53.2716V40.5556ZM49.615 40.5556C49.615 39.7483 50.1373 39.0834 50.9921 39.0834C51.7994 39.0834 52.3693 39.7008 52.3693 40.5556C52.3693 41.3629 51.7994 42.0277 50.9921 42.0277C50.1373 41.9803 49.615 41.3629 49.615 40.5556ZM16.2778 40.5556V38.2761H15.2805V38.846C14.9481 38.4186 14.4732 38.1811 13.8559 38.1811C12.5737 38.1811 11.5764 39.1784 11.5764 40.5556C11.5764 41.9328 12.5737 42.93 13.8559 42.93C14.5207 42.93 14.9956 42.6926 15.2805 42.2652V42.8351H16.2778V40.5556ZM12.5737 40.5556C12.5737 39.7483 13.096 39.0834 13.9508 39.0834C14.7581 39.0834 15.328 39.7008 15.328 40.5556C15.328 41.3629 14.7581 42.0277 13.9508 42.0277C13.096 41.9803 12.5737 41.3629 12.5737 40.5556ZM54.9337 42.1702C54.9812 42.1702 55.0762 42.1702 55.1237 42.2177C55.1712 42.2177 55.2186 42.2652 55.2661 42.3127C55.3136 42.3602 55.3611 42.4077 55.3611 42.4551C55.4086 42.5026 55.4086 42.5501 55.4086 42.6451C55.4086 42.6926 55.4086 42.7876 55.3611 42.8351C55.3136 42.8825 55.3136 42.93 55.2661 42.9775C55.2186 43.025 55.1712 43.0725 55.1237 43.0725C55.0762 43.12 55.0287 43.12 54.9337 43.12C54.8862 43.12 54.7913 43.12 54.7438 43.0725C54.6963 43.025 54.6488 43.025 54.6013 42.9775C54.5538 42.93 54.5063 42.8825 54.5063 42.8351C54.4588 42.7876 54.4588 42.7401 54.4588 42.6451C54.4588 42.5976 54.4588 42.5026 54.5063 42.4551C54.5538 42.4077 54.5538 42.3602 54.6013 42.3127C54.6488 42.2652 54.6963 42.2177 54.7438 42.2177C54.7913 42.1702 54.8862 42.1702 54.9337 42.1702ZM54.9337 42.9775C54.9812 42.9775 55.0287 42.9775 55.0762 42.93C55.1237 42.93 55.1712 42.8825 55.1712 42.8351C55.2186 42.7876 55.2186 42.7876 55.2661 42.7401C55.2661 42.6926 55.3136 42.6451 55.3136 42.5976C55.3136 42.5501 55.3136 42.5026 55.2661 42.4551C55.2661 42.4077 55.2186 42.3602 55.1712 42.3602C55.1237 42.3127 55.1237 42.3127 55.0762 42.2652C55.0287 42.2652 54.9812 42.2177 54.9337 42.2177C54.8862 42.2177 54.8387 42.2177 54.7912 42.2652C54.7438 42.2652 54.6963 42.3127 54.6963 42.3602C54.6488 42.4077 54.6488 42.4077 54.6013 42.4551C54.6013 42.5026 54.5538 42.5501 54.5538 42.5976C54.5538 42.6451 54.5538 42.6926 54.6013 42.7401C54.6013 42.7876 54.6488 42.8351 54.6963 42.8351C54.7438 42.8825 54.7438 42.8825 54.7912 42.93C54.8387 42.93 54.8862 42.9775 54.9337 42.9775ZM54.9812 42.4077C55.0287 42.4077 55.0762 42.4077 55.1237 42.4551C55.1712 42.5026 55.1712 42.5026 55.1712 42.5501C55.1712 42.5976 55.1712 42.5976 55.1237 42.6451C55.1237 42.6451 55.0762 42.6926 55.0287 42.6926L55.1712 42.8351H55.0762L54.9337 42.6926H54.8862V42.8351H54.7912V42.4077H54.9812ZM54.8387 42.4551V42.5501H54.9337H54.9812C54.9812 42.5501 54.9812 42.5501 54.9812 42.5026V42.4551H54.9337H54.8387Z" fill="#6A6A6A"/>
<path d="M35.7482 3.65674H20.7892V30.5354H35.7482V3.65674Z" fill="#7A7A7A"/>
<path d="M21.739 17.0961C21.739 11.6349 24.3034 6.79103 28.2449 3.65677C25.3481 1.3773 21.6915 0.00012207 17.7024 0.00012207C8.25215 0.00012207 0.606445 7.64583 0.606445 17.0961C0.606445 26.5464 8.25215 34.1921 17.7024 34.1921C21.6915 34.1921 25.3481 32.8149 28.2449 30.5355C24.3034 27.4487 21.739 22.5573 21.739 17.0961Z" fill="#404040"/>
<path d="M54.3163 27.7336V27.1637H54.5537V27.0687H53.9839V27.1637H54.2213V27.7336H54.3163ZM55.4086 27.7336V27.0687H55.2186L55.0286 27.5436L54.8387 27.0687H54.6487V27.7336H54.7912V27.2112L54.9812 27.6386H55.1236L55.3136 27.2112V27.7336H55.4086Z" fill="black"/>
<path d="M55.9309 17.0961C55.9309 26.5464 48.2852 34.1921 38.8349 34.1921C34.8458 34.1921 31.1892 32.8149 28.2924 30.5355C32.2814 27.4012 34.7983 22.5573 34.7983 17.0961C34.7983 11.6349 32.2339 6.79103 28.2924 3.65677C31.1892 1.3773 34.8458 0.00012207 38.8349 0.00012207C48.2852 0.00012207 55.9309 7.69332 55.9309 17.0961Z" fill="#B8B8B8"/>
</svg>
