<svg width="44" height="45" viewBox="0 0 44 45" fill="none" xmlns="http://www.w3.org/2000/svg">
<path d="M1.83423 5.68775L1.83423 9.35442L42.1676 9.35442L42.1676 5.68775C42.1676 4.71529 41.7812 3.78266 41.0936 3.09503C40.406 2.4074 39.4734 2.02109 38.5009 2.02109L5.50089 2.02109C4.52843 2.02109 3.5958 2.4074 2.90817 3.09503C2.22054 3.78266 1.83423 4.71529 1.83423 5.68775ZM7.33423 7.52109C6.97163 7.52109 6.61717 7.41356 6.31568 7.21211C6.01419 7.01067 5.77921 6.72434 5.64045 6.38934C5.50169 6.05434 5.46538 5.68572 5.53612 5.33009C5.60686 4.97446 5.78147 4.64779 6.03787 4.39139C6.29426 4.135 6.62093 3.96039 6.97656 3.88965C7.33219 3.81891 7.70082 3.85521 8.03581 3.99397C8.37081 4.13274 8.65714 4.36772 8.85859 4.66921C9.06004 4.9707 9.16756 5.32516 9.16756 5.68775C9.16756 6.17398 8.97441 6.6403 8.63059 6.98412C8.28677 7.32793 7.82046 7.52109 7.33423 7.52109ZM12.8342 7.52109C12.4716 7.52109 12.1172 7.41356 11.8157 7.21211C11.5142 7.01067 11.2792 6.72434 11.1404 6.38934C11.0017 6.05434 10.9654 5.68572 11.0361 5.33009C11.1069 4.97446 11.2815 4.64779 11.5379 4.39139C11.7943 4.135 12.1209 3.96039 12.4766 3.88965C12.8322 3.81891 13.2008 3.85521 13.5358 3.99398C13.8708 4.13274 14.1571 4.36772 14.3586 4.66921C14.56 4.9707 14.6676 5.32516 14.6676 5.68775C14.6661 6.17354 14.4725 6.63901 14.129 6.98251C13.7855 7.32602 13.32 7.51964 12.8342 7.52109Z" fill="#FCAD00"/>
<path d="M1.83423 11.1877L1.83423 36.8544C1.83423 37.8269 2.22054 38.7595 2.90817 39.4471C3.5958 40.1348 4.52843 40.5211 5.50089 40.5211L38.5009 40.5211C39.4734 40.5211 40.406 40.1348 41.0936 39.4471C41.7812 38.7595 42.1676 37.8269 42.1676 36.8544L42.1676 11.1877L1.83423 11.1877ZM16.6842 28.2377L19.0676 30.6211L17.7842 31.9044L16.5009 33.1877L12.8342 29.5211L9.16756 25.8544L12.8342 22.1877L16.5009 18.5211L17.7842 19.8044L19.0676 21.0877L16.6842 23.4711L14.3009 25.8544L16.6842 28.2377ZM31.1676 29.5211L27.5009 33.1877L26.2176 31.9044L24.9342 30.6211L27.3176 28.2377L29.7009 25.8544L27.3176 23.4711L24.9342 21.0877L26.2176 19.8044L27.5009 18.5211L31.1676 22.1877L34.8342 25.8544L31.1676 29.5211Z" fill="#FCAD00"/>
</svg>
