<svg width="51" height="51" viewBox="0 0 51 51" fill="none" xmlns="http://www.w3.org/2000/svg">
<path d="M44 32.7089V38.8589C44 42.2558 35.7161 45.0089 25.5 45.0089C15.2838 45.0089 6.99995 42.2558 6.99995 38.8589V32.7089C6.99995 36.1058 15.2838 38.8589 25.5 38.8589C35.7161 38.8589 44 36.1058 44 32.7089ZM25.5 30.6589C15.2838 30.6589 6.99995 27.9058 6.99995 24.5089V30.6589C6.99995 34.0558 15.2838 36.8089 25.5 36.8089C35.7161 36.8089 44 34.0558 44 30.6589V24.5089C44 27.9058 35.7161 30.6589 25.5 30.6589ZM25.5 4.00891C15.2838 4.00891 6.99995 6.76206 6.99995 10.1589V14.2589C6.99995 17.6558 15.2838 20.4089 25.5 20.4089C35.7161 20.4089 44 17.6558 44 14.2589V10.1589C44 6.76206 35.7161 4.00891 25.5 4.00891ZM25.5 22.4589C15.2838 22.4589 6.99995 19.7058 6.99995 16.3089V22.4589C6.99995 25.8558 15.2838 28.6089 25.5 28.6089C35.7161 28.6089 44 25.8558 44 22.4589V16.3089C44 19.7058 35.7161 22.4589 25.5 22.4589Z" fill="#FCAD00"/>
</svg>
