<svg width="47" height="48" viewBox="0 0 47 48" fill="none" xmlns="http://www.w3.org/2000/svg">
<g clip-path="url(#clip0_645_265)">
<path d="M44.9726 15.6764C44.1041 14.6013 43.0314 13.7086 41.8164 13.0499C40.6014 12.3911 39.2681 11.9793 37.8932 11.838C37.3041 8.85398 35.8022 6.12678 33.5951 4.03376C31.3881 1.94074 28.5852 0.585391 25.5741 0.155237C22.563 -0.274918 19.4927 0.24139 16.7879 1.63272C14.0831 3.02405 11.8776 5.22163 10.4765 7.92138C9.57333 8.0288 8.68594 8.24243 7.8328 8.55784C5.54347 9.36141 3.56024 10.8562 2.15719 12.8357C0.754145 14.8151 0.000549316 17.1815 0.000549316 19.6077C0.000549316 22.034 0.754145 24.4004 2.15719 26.3798C3.56024 28.3593 5.54347 29.8541 7.8328 30.6576V15.6764H39.1661V31.1472C41.3773 30.6947 43.3644 29.4927 44.7917 27.7443C46.219 25.9959 46.9988 23.8084 46.9995 21.5514C46.9931 19.4226 46.2802 17.3562 44.9726 15.6764Z" fill="#FCAD00"/>
<path d="M35.2891 43.0981C35.2891 45.2582 30.0271 47.0089 23.5391 47.0089C17.0511 47.0089 11.7891 45.2582 11.7891 43.0981V39.1893C11.7891 41.3474 17.0492 43.0981 23.5391 43.0981C30.029 43.0981 35.2891 41.3474 35.2891 39.1893" fill="#FCAD00"/>
<path d="M23.5391 32.6817C17.0551 32.6817 11.7891 30.9231 11.7891 28.7729V36.5357C11.7891 38.6879 17.0551 40.4465 23.5391 40.4465C30.0231 40.4465 35.2891 38.6879 35.2891 36.5357V28.7729C35.2891 30.9231 30.0212 32.6817 23.5391 32.6817Z" fill="#FCAD00"/>
<path d="M35.2891 23.503C35.2891 21.343 30.0271 19.5922 23.5391 19.5922C17.0511 19.5922 11.7891 21.343 11.7891 23.503V26.1076C11.7891 28.2696 17.0492 30.0204 23.5391 30.0204C30.029 30.0204 35.2891 28.2696 35.2891 26.1096" fill="#FCAD00"/>
</g>
<defs>
<clipPath id="clip0_645_265">
<rect width="47" height="47" fill="white" transform="translate(-6.10352e-05 0.0089035)"/>
</clipPath>
</defs>
</svg>
