<svg width="45" height="47" viewBox="0 0 45 47" fill="none" xmlns="http://www.w3.org/2000/svg">
<g clip-path="url(#clip0_645_253)">
<path d="M45 21.1325C45 23.0741 40.3837 24.6457 34.6875 24.6457C28.9912 24.6457 24.375 23.0741 24.375 21.1325V17.6192C24.375 19.5589 28.9912 21.1325 34.6875 21.1325C40.3837 21.1325 45 19.5608 45 17.6192" fill="#FCAD00"/>
<path d="M34.6875 11.7715C28.9968 11.7715 24.375 10.1903 24.375 8.25827V15.2349C24.375 17.1689 28.9968 18.7501 34.6875 18.7501C40.3781 18.7501 45 17.1689 45 15.2349V8.25827C45 10.1903 40.3781 11.7715 34.6875 11.7715Z" fill="#FCAD00"/>
<path d="M45 3.52216C45 1.58249 40.3837 0.00891113 34.6875 0.00891113C28.9912 0.00891113 24.375 1.58058 24.375 3.52216V5.86624C24.375 7.80591 28.9912 9.37949 34.6875 9.37949C40.3837 9.37949 45 7.80783 45 5.86624" fill="#FCAD00"/>
<path d="M20.625 42.2158C20.625 44.1574 16.0087 45.7291 10.3125 45.7291C4.6162 45.7291 -4.57764e-05 44.1574 -4.57764e-05 42.2158V38.7026C-4.57764e-05 40.6423 4.6162 42.2139 10.3125 42.2139C16.0087 42.2139 20.625 40.6423 20.625 38.7007V42.2158Z" fill="#FCAD00"/>
<path d="M10.3125 32.8548C4.62183 32.8548 -4.57764e-05 31.2736 -4.57764e-05 29.3416V36.3183C-4.57764e-05 38.2522 4.62183 39.8334 10.3125 39.8334C16.0031 39.8334 20.625 38.2522 20.625 36.3183V29.3416C20.625 31.2736 16.0031 32.8548 10.3125 32.8548Z" fill="#FCAD00"/>
<path d="M20.625 24.6055C20.625 22.6658 16.0087 21.0923 10.3125 21.0923C4.6162 21.0923 -4.57764e-05 22.6639 -4.57764e-05 24.6055V26.9496C-4.57764e-05 28.8893 4.6162 30.4628 10.3125 30.4628C16.0087 30.4628 20.625 28.8912 20.625 26.9496V24.6055Z" fill="#FCAD00"/>
<path d="M37.5 40.2589H33.75V35.2947L28.8937 40.2589L26.25 37.5564L31.1062 32.5922H26.25V28.7589H37.5V40.2589Z" fill="#FCAD00"/>
<path d="M7.12497 3.45892L10.875 3.45892L10.875 8.42309L15.7312 3.45892L18.375 6.16142L13.5187 11.1256L18.375 11.1256L18.375 14.9589L7.12497 14.9589L7.12497 3.45892Z" fill="#FCAD00"/>
</g>
<defs>
<clipPath id="clip0_645_253">
<rect width="45" height="46" fill="white" transform="translate(-4.57764e-05 0.00891113)"/>
</clipPath>
</defs>
</svg>
