<svg width="48" height="42" viewBox="0 0 48 42" fill="none" xmlns="http://www.w3.org/2000/svg">
<path d="M17.8263 20.9166H22.4375C24.9736 20.9166 27.4059 21.9439 29.1992 23.7724C30.9925 25.6008 32 28.0808 32 30.6666H17.1229L17.125 32.8333H34.125V30.6666C34.1183 28.3612 33.465 26.1059 32.2423 24.1666H38.375C40.3837 24.1661 42.3514 24.7461 44.0499 25.8394C45.7484 26.9327 47.1082 28.4946 47.9715 30.3438C42.9459 37.106 34.8092 41.5 25.625 41.5C19.7579 41.5 14.7875 40.2216 10.75 37.9791V17.8205C13.3353 18.1981 15.7766 19.2663 17.8263 20.9166ZM8.625 37.1666C8.625 37.7413 8.40112 38.2924 8.0026 38.6987C7.60409 39.105 7.06359 39.3333 6.5 39.3333H2.25C1.68641 39.3333 1.14591 39.105 0.747398 38.6987C0.348883 38.2924 0.125 37.7413 0.125 37.1666V17.6666C0.125 17.092 0.348883 16.5409 0.747398 16.1346C1.14591 15.7283 1.68641 15.5 2.25 15.5H6.5C7.06359 15.5 7.60409 15.7283 8.0026 16.1346C8.40112 16.5409 8.625 17.092 8.625 17.6666V37.1666ZM36.25 6.83331C37.9408 6.83331 39.5623 7.51813 40.7578 8.73712C41.9534 9.95611 42.625 11.6094 42.625 13.3333C42.625 15.0572 41.9534 16.7105 40.7578 17.9295C39.5623 19.1485 37.9408 19.8333 36.25 19.8333C34.5592 19.8333 32.9377 19.1485 31.7422 17.9295C30.5466 16.7105 29.875 15.0572 29.875 13.3333C29.875 11.6094 30.5466 9.95611 31.7422 8.73712C32.9377 7.51813 34.5592 6.83331 36.25 6.83331ZM21.375 0.333313C23.0658 0.333313 24.6873 1.01813 25.8828 2.23712C27.0784 3.45611 27.75 5.10941 27.75 6.83331C27.75 8.55722 27.0784 10.2105 25.8828 11.4295C24.6873 12.6485 23.0658 13.3333 21.375 13.3333C19.6842 13.3333 18.0627 12.6485 16.8672 11.4295C15.6716 10.2105 15 8.55722 15 6.83331C15 5.10941 15.6716 3.45611 16.8672 2.23712C18.0627 1.01813 19.6842 0.333313 21.375 0.333313Z" fill="#FCAD00"/>
</svg>
