<svg width="48" height="53" viewBox="0 0 48 53" fill="none" xmlns="http://www.w3.org/2000/svg">
<path d="M45.2533 12.1466L24 0.333313L2.74667 12.1466L16.2667 19.64C18.2133 17.6133 20.96 16.3333 24 16.3333C27.04 16.3333 29.7867 17.6133 31.7333 19.64L45.2533 12.1466ZM18.6667 27C18.6667 24.0666 21.0667 21.6666 24 21.6666C26.9333 21.6666 29.3333 24.0666 29.3333 27C29.3333 29.9333 26.9333 32.3333 24 32.3333C21.0667 32.3333 18.6667 29.9333 18.6667 27ZM21.3333 52.1733L0 40.3333V16.7066L13.68 24.3066C13.44 25.16 13.3333 26.0666 13.3333 27C13.3333 31.96 16.72 36.1466 21.3333 37.32V52.1733V52.1733ZM26.6667 52.1733V37.32C31.28 36.1466 34.6667 31.96 34.6667 27C34.6667 26.0666 34.56 25.16 34.32 24.3066L48 16.7066V40.3333L26.6667 52.1733V52.1733Z" fill="#FCAD00"/>
</svg>
