<svg width="51" height="51" viewBox="0 0 51 51" fill="none" xmlns="http://www.w3.org/2000/svg">
<path d="M49.4062 44.625H47.8124V49.4062C47.8124 49.8379 47.6547 50.2114 47.3393 50.5269C47.0239 50.8423 46.6503 51 46.2187 51C45.787 51 45.4135 50.8423 45.0981 50.5269C44.7826 50.2114 44.6249 49.8379 44.6249 49.4062V44.625H41.4374V49.4062C41.4374 49.8379 41.2797 50.2114 40.9643 50.5269C40.6489 50.8423 40.2753 51 39.8437 51C39.412 51 39.0385 50.8423 38.7231 50.5269C38.4076 50.2114 38.2499 49.8379 38.2499 49.4062V44.625H35.0624V49.4062C35.0624 49.8379 34.9047 50.2114 34.5893 50.5269C34.2739 50.8423 33.9003 51 33.4687 51C33.037 51 32.6635 50.8423 32.3481 50.5269C32.0326 50.2114 31.8749 49.8379 31.8749 49.4062V44.625H28.6874V49.4062C28.6874 49.8379 28.5297 50.2114 28.2143 50.5269C27.8989 50.8423 27.5253 51 27.0937 51C26.662 51 26.2885 50.8423 25.9731 50.5269C25.6576 50.2114 25.4999 49.8379 25.4999 49.4062V44.625H22.3124V49.4062C22.3124 49.8379 22.1547 50.2114 21.8393 50.5269C21.5239 50.8423 21.1503 51 20.7187 51C20.287 51 19.9135 50.8423 19.5981 50.5269C19.2826 50.2114 19.1249 49.8379 19.1249 49.4062V44.625H15.9374V49.4062C15.9374 49.8379 15.7797 50.2114 15.4643 50.5269C15.1489 50.8423 14.7753 51 14.3437 51C13.912 51 13.5385 50.8423 13.2231 50.5269C12.9076 50.2114 12.7499 49.8379 12.7499 49.4062V44.625H9.56242V9.5625H49.4062C49.8378 9.5625 50.2114 9.72021 50.5268 10.0356C50.8422 10.3511 50.9999 10.7246 50.9999 11.1562V43.0312C50.9999 43.4629 50.8422 43.8364 50.5268 44.1519C50.2114 44.4673 49.8378 44.625 49.4062 44.625ZM47.8124 15.9375C47.8124 15.0742 47.5053 14.3271 46.891 13.6963C46.2768 13.0654 45.5214 12.75 44.6249 12.75H22.3124C21.4491 12.75 20.7021 13.0654 20.0712 13.6963C19.4404 14.3271 19.1249 15.0742 19.1249 15.9375V35.0625C19.1249 35.959 19.4404 36.7144 20.0712 37.3286C20.7021 37.9429 21.4491 38.25 22.3124 38.25H44.6249C45.5214 38.25 46.2768 37.9429 46.891 37.3286C47.5053 36.7144 47.8124 35.959 47.8124 35.0625V15.9375ZM43.0312 35.0625H23.9062C23.4745 35.0625 23.101 34.9048 22.7856 34.5894C22.4701 34.2739 22.3124 33.9004 22.3124 33.4688V17.5312C22.3124 17.0996 22.4701 16.7261 22.7856 16.4106C23.101 16.0952 23.4745 15.9375 23.9062 15.9375H43.0312C43.4628 15.9375 43.8364 16.0952 44.1518 16.4106C44.4672 16.7261 44.6249 17.0996 44.6249 17.5312V33.4688C44.6249 33.9004 44.4672 34.2739 44.1518 34.5894C43.8364 34.9048 43.4628 35.0625 43.0312 35.0625ZM35.0624 19.125C33.3027 19.125 31.8002 19.7476 30.5551 20.9927C29.31 22.2378 28.6874 23.7402 28.6874 25.5C28.6874 27.2598 29.31 28.7622 30.5551 30.0073C31.8002 31.2524 33.3027 31.875 35.0624 31.875C36.8222 31.875 38.3246 31.2524 39.5698 30.0073C40.8149 28.7622 41.4374 27.2598 41.4374 25.5C41.4374 23.7402 40.8149 22.2378 39.5698 20.9927C38.3246 19.7476 36.8222 19.125 35.0624 19.125ZM35.0873 28.6875C34.2074 28.6875 33.4521 28.3804 32.8212 27.7661C32.1904 27.1519 31.8749 26.4048 31.8749 25.5249C31.8749 24.645 32.1904 23.8896 32.8212 23.2588C33.4521 22.6279 34.2074 22.3125 35.0873 22.3125C35.9672 22.3125 36.7143 22.6196 37.3285 23.2339C37.9428 23.8481 38.2499 24.6035 38.2499 25.5C38.2499 26.3965 37.9428 27.1519 37.3285 27.7661C36.7143 28.3804 35.9672 28.6875 35.0873 28.6875ZM6.37492 44.625V49.4062C6.37492 49.8379 6.21721 50.2114 5.90178 50.5269C5.58635 50.8423 5.21281 51 4.78117 51C4.34953 51 3.976 50.8423 3.66057 50.5269C3.34514 50.2114 3.18742 49.8379 3.18742 49.4062V3.1875H1.59367C1.16203 3.1875 0.788498 3.02979 0.473068 2.71436C0.157639 2.39893 -7.62939e-05 2.02539 -7.62939e-05 1.59375C-7.62939e-05 1.16211 0.157639 0.788574 0.473068 0.473145C0.788498 0.157715 1.16203 0 1.59367 0H4.78117C4.91399 0 5.0136 0.0166016 5.08 0.0498047C5.44524 0.116211 5.75237 0.290527 6.00139 0.572754C6.25041 0.85498 6.37492 1.19531 6.37492 1.59375V44.625Z" fill="#FCAD00"/>
</svg>
