<svg width="48" height="49" viewBox="0 0 48 49" fill="none" xmlns="http://www.w3.org/2000/svg">
<path d="M18.5 43.8334H9.5V48.4167H5V43.8334H2.75C2.15326 43.8334 1.58097 43.5919 1.15901 43.1621C0.737053 42.7324 0.5 42.1495 0.5 41.5417V7.1667C0.5 6.55891 0.737053 5.97601 1.15901 5.54624C1.58097 5.11647 2.15326 4.87503 2.75 4.87503H18.5V1.64378C18.5001 1.47745 18.5357 1.31313 18.6044 1.16224C18.6731 1.01135 18.7732 0.8775 18.8979 0.769993C19.0225 0.662486 19.1686 0.583898 19.326 0.539689C19.4834 0.495481 19.6484 0.486711 19.8095 0.513988L43.619 4.55649C44.1444 4.64545 44.6217 4.92134 44.9662 5.33509C45.3106 5.74884 45.4998 6.27362 45.5 6.81607V11.75H47.75V16.3334H45.5V32.375H47.75V36.9584H45.5V41.8923C45.4998 42.4348 45.3106 42.9595 44.9662 43.3733C44.6217 43.787 44.1444 44.0629 43.619 44.1519L41 44.5965V48.4167H36.5V45.3619L19.8095 48.1944C19.6484 48.2217 19.4834 48.2129 19.326 48.1687C19.1686 48.1245 19.0225 48.0459 18.8979 47.9384C18.7732 47.8309 18.6731 47.697 18.6044 47.5462C18.5357 47.3953 18.5001 47.2309 18.5 47.0646V43.8334ZM23 43.0084L41 39.9513V8.75711L23 5.70232V43.0061V43.0084ZM33.125 30.0834C31.262 30.0834 29.75 27.5167 29.75 24.3542C29.75 21.1917 31.262 18.625 33.125 18.625C34.988 18.625 36.5 21.1917 36.5 24.3542C36.5 27.5167 34.988 30.0834 33.125 30.0834Z" fill="#FCAD00"/>
</svg>
