<svg width="42" height="42" viewBox="0 0 42 42" fill="none" xmlns="http://www.w3.org/2000/svg">
<path d="M2.625 0V42H10.5V39.375H31.5V42H39.375V0H2.625ZM36.75 26.25H34.125V13.125H36.75V26.25ZM36.75 7.875H34.125V5.25H7.875V34.125H34.125V31.5H36.75V36.75H5.25V2.625H36.75V7.875ZM22.3125 19.6875C22.3125 22.575 19.95 24.9375 17.0625 24.9375C14.175 24.9375 11.8125 22.575 11.8125 19.6875C11.8125 16.8 14.175 14.4375 17.0625 14.4375C19.95 14.4375 22.3125 16.8 22.3125 19.6875Z" fill="#FCAD00"/>
<path d="M19.6875 19.6875C19.6875 20.3837 19.4109 21.0514 18.9187 21.5437C18.4264 22.0359 17.7587 22.3125 17.0625 22.3125C16.3663 22.3125 15.6986 22.0359 15.2063 21.5437C14.7141 21.0514 14.4375 20.3837 14.4375 19.6875C14.4375 18.9913 14.7141 18.3236 15.2063 17.8313C15.6986 17.3391 16.3663 17.0625 17.0625 17.0625C17.7587 17.0625 18.4264 17.3391 18.9187 17.8313C19.4109 18.3236 19.6875 18.9913 19.6875 19.6875Z" fill="#FCAD00"/>
</svg>
