<svg width="52" height="52" viewBox="0 0 52 52" fill="none" xmlns="http://www.w3.org/2000/svg">
<path d="M39 43.3333H13V47.6667H8.66671V43.3333H6.50004C5.92541 43.3333 5.3743 43.1051 4.96798 42.6987C4.56165 42.2924 4.33337 41.7413 4.33337 41.1667V8.66667C4.33337 8.09203 4.56165 7.54093 4.96798 7.1346C5.3743 6.72827 5.92541 6.5 6.50004 6.5H45.5C46.0747 6.5 46.6258 6.72827 47.0321 7.1346C47.4384 7.54093 47.6667 8.09203 47.6667 8.66667V41.1667C47.6667 41.7413 47.4384 42.2924 47.0321 42.6987C46.6258 43.1051 46.0747 43.3333 45.5 43.3333H43.3334V47.6667H39V43.3333ZM23.8334 30.0603V36.8333H28.1667V30.0603C30.2044 29.5279 31.9787 28.272 33.1583 26.5272C34.3378 24.7824 34.842 22.6679 34.5767 20.5785C34.3113 18.4892 33.2946 16.5678 31.7163 15.1732C30.1381 13.7786 28.1062 13.0061 26 13C23.8891 12.9979 21.85 13.7663 20.2655 15.161C18.6809 16.5556 17.6598 18.4807 17.3939 20.5748C17.1279 22.6689 17.6354 24.788 18.821 26.5345C20.0067 28.281 21.789 29.5347 23.8334 30.0603ZM26 26C24.8508 26 23.7486 25.5435 22.9359 24.7308C22.1233 23.9181 21.6667 22.8159 21.6667 21.6667C21.6667 20.5174 22.1233 19.4152 22.9359 18.6025C23.7486 17.7899 24.8508 17.3333 26 17.3333C27.1493 17.3333 28.2515 17.7899 29.0642 18.6025C29.8768 19.4152 30.3334 20.5174 30.3334 21.6667C30.3334 22.8159 29.8768 23.9181 29.0642 24.7308C28.2515 25.5435 27.1493 26 26 26Z" fill="#FCAD00"/>
</svg>
