<svg width="49" height="49" viewBox="0 0 49 49" fill="none" xmlns="http://www.w3.org/2000/svg">
<path d="M23.198 38.22C19.5203 38.0461 16.0509 36.4614 13.5106 33.7951C10.9702 31.1289 9.55405 27.586 9.55631 23.9024C9.55631 15.9907 15.9829 9.56098 23.8908 9.56098C31.5836 9.56098 37.843 15.6083 38.2014 23.2093L33.1843 21.7034C32.7938 20.0465 31.9681 18.5239 30.7925 17.2931C29.6169 16.0623 28.1341 15.168 26.4974 14.7026C24.8606 14.2372 23.1293 14.2175 21.4825 14.6457C19.8356 15.0738 18.3329 15.9343 17.1297 17.1381C15.9265 18.3418 15.0665 19.8453 14.6385 21.493C14.2106 23.1406 14.2302 24.8728 14.6954 26.5103C15.1606 28.1478 16.0545 29.6314 17.2847 30.8075C18.5149 31.9837 20.0367 32.8098 21.6928 33.2005L23.198 38.22ZM47.7816 23.9024C47.7816 24.6195 47.7577 25.3366 47.686 26.0537L42.9795 24.6434C43.0034 24.4044 43.0034 24.1415 43.0034 23.9024C43.0034 13.3376 34.4505 4.78049 23.8908 4.78049C13.3311 4.78049 4.77816 13.3376 4.77816 23.9024C4.77816 34.4673 13.3311 43.0244 23.8908 43.0244C24.1297 43.0244 24.3925 43.0244 24.6314 43.0005L26.041 47.7093C25.3242 47.781 24.6075 47.8049 23.8908 47.8049C10.7031 47.8049 0 37.0966 0 23.9024C0 10.7083 10.7031 0 23.8908 0C37.0785 0 47.7816 10.7083 47.7816 23.9024ZM38.7747 34.0849L47.7816 31.0732L23.8908 23.9024L31.058 47.8049L34.0683 38.7937L44.2696 49L49 44.2673L38.7747 34.0849Z" fill="#FCAD00"/>
</svg>
