<svg width="49" height="55" viewBox="0 0 49 55" fill="none" xmlns="http://www.w3.org/2000/svg">
<path d="M37.4289 7.74023L37.4551 7.72715H37.4682L24.5 0.28125L11.5384 7.72715H11.5253L11.5711 7.74678L0.912598 13.8906V41.1094L24.5 54.7188L48.0874 41.1094V13.8906L37.4289 7.74023ZM22.5829 49.1965L13.2199 43.792V34.658L4.74023 29.8424V18.3987L22.5829 28.6908V49.1965ZM6.58535 15.0356L15.3987 9.94521L24.4869 15.16L33.5882 9.93213L42.4343 15.0356L24.5131 25.3735L6.58535 15.0356ZM44.2598 29.8751L35.8324 34.658V43.7593L26.4171 49.1899V28.7039L44.2598 18.4118V29.8751Z" fill="#FCAD00"/>
</svg>
