<svg width="54" height="54" viewBox="0 0 54 54" fill="none" xmlns="http://www.w3.org/2000/svg">
<path d="M4.5 40.5H20.25V45H4.5V40.5ZM4.5 24.75H24.75V29.25H4.5V24.75ZM4.5 9H49.5V13.5H4.5V9ZM46.5165 29.3062L49.1175 28.4265L51.3675 32.3235L49.3065 34.1347C49.5659 35.3647 49.5659 36.6353 49.3065 37.8653L51.3675 39.6765L49.1175 43.5735L46.5165 42.6938C45.594 43.5263 44.496 44.1675 43.2878 44.5612L42.75 47.25H38.25L37.71 44.559C36.5158 44.1688 35.4167 43.5326 34.4835 42.6915L31.8825 43.5735L29.6325 39.6765L31.6935 37.8653C31.4341 36.6353 31.4341 35.3647 31.6935 34.1347L29.6325 32.3235L31.8825 28.4265L34.4835 29.3062C35.406 28.4737 36.504 27.8325 37.7122 27.4387L38.25 24.75H42.75L43.29 27.441C44.496 27.8325 45.594 28.476 46.5165 29.3085V29.3062ZM40.5 38.25C41.0967 38.25 41.669 38.0129 42.091 37.591C42.5129 37.169 42.75 36.5967 42.75 36C42.75 35.4033 42.5129 34.831 42.091 34.409C41.669 33.9871 41.0967 33.75 40.5 33.75C39.9033 33.75 39.331 33.9871 38.909 34.409C38.4871 34.831 38.25 35.4033 38.25 36C38.25 36.5967 38.4871 37.169 38.909 37.591C39.331 38.0129 39.9033 38.25 40.5 38.25Z" fill="#FCAD00"/>
</svg>
