<svg width="52" height="52" viewBox="0 0 52 52" fill="none" xmlns="http://www.w3.org/2000/svg">
<path d="M26.897 10.8333H45.5C46.0747 10.8333 46.6258 11.0616 47.0321 11.4679C47.4384 11.8742 47.6667 12.4253 47.6667 13V43.3333C47.6667 43.9079 47.4384 44.459 47.0321 44.8654C46.6258 45.2717 46.0747 45.5 45.5 45.5H6.50004C5.9254 45.5 5.3743 45.2717 4.96798 44.8654C4.56165 44.459 4.33337 43.9079 4.33337 43.3333V8.66664C4.33337 8.092 4.56165 7.5409 4.96798 7.13457C5.3743 6.72824 5.9254 6.49997 6.50004 6.49997H22.5637L26.897 10.8333ZM23.8334 19.5V23.8333H28.1667V19.5H23.8334ZM23.8334 26V36.8333H28.1667V26H23.8334Z" fill="#FCAD00"/>
</svg>
