<svg width="58" height="40" viewBox="0 0 58 40" fill="none" xmlns="http://www.w3.org/2000/svg">
<path d="M34.5 25.5V31.1667H43V39.6667H48.6667V31.1667H57.1667V25.5H48.6667V17H43V25.5H34.5ZM34.415 15.895C34.075 12.1267 30.505 8.415 26 8.5C21.1833 8.585 17.5 12.1833 17.5 17C17.5 21.8167 21.1833 25.33 26 25.5C27.0767 25.5 28.1817 25.2733 29.23 24.8483C29.995 21.7317 31.27 18.785 34.415 15.895ZM28.8333 28.3333H11.8333C11.8333 26.8304 11.2363 25.3891 10.1736 24.3264C9.1109 23.2637 7.66956 22.6667 6.16667 22.6667V11.3333C9.31167 11.3333 11.8333 8.81167 11.8333 5.66667H40.1667C40.1667 7.16956 40.7637 8.6109 41.8264 9.6736C42.8891 10.7363 44.3304 11.3333 45.8333 11.3333V11.5033C47.7317 11.5033 49.63 11.8433 51.5 12.4667V0H0.5V34H29.74C29.138 32.1714 28.8319 30.2584 28.8333 28.3333Z" fill="#FCAD00"/>
</svg>
