<svg width="77" height="32" viewBox="0 0 77 32" fill="none" xmlns="http://www.w3.org/2000/svg">
<path d="M14.2557 4.11096C13.3623 5.16817 11.9328 6.00203 10.5033 5.88291C10.3246 4.45344 11.0245 2.93462 11.8435 1.99653C12.7369 0.909541 14.3004 0.135245 15.566 0.0756836C15.7149 1.56472 15.1342 3.02397 14.2557 4.11096ZM15.5512 6.16582C13.4814 6.0467 11.7094 7.34216 10.7267 7.34216C9.72904 7.34216 8.22511 6.22539 6.58718 6.25517C4.45786 6.28495 2.47745 7.49106 1.39046 9.41191C-0.843091 13.2536 0.809734 18.9417 2.96883 22.0687C4.02604 23.6173 5.29172 25.3148 6.95944 25.2552C8.53781 25.1957 9.1632 24.2278 11.0692 24.2278C12.99 24.2278 13.541 25.2552 15.2087 25.2254C16.936 25.1957 18.0229 23.6768 19.0802 22.1282C20.2863 20.3712 20.7777 18.6588 20.8074 18.5695C20.7777 18.5397 17.472 17.274 17.4422 13.4621C17.4124 10.2756 20.048 8.75674 20.1672 8.6674C18.6781 6.46363 16.3552 6.22539 15.5512 6.16582ZM27.5081 1.84763V25.0616H31.1115V17.1251H36.0998C40.6562 17.1251 43.8577 13.9981 43.8577 9.47147C43.8577 4.94482 40.7158 1.84763 36.2189 1.84763H27.5081ZM31.1115 4.88526H35.2659C38.3929 4.88526 40.1797 6.55297 40.1797 9.48637C40.1797 12.4198 38.3929 14.1024 35.251 14.1024H31.1115V4.88526ZM50.4392 25.2403C52.7025 25.2403 54.802 24.0938 55.755 22.2772H55.8295V25.0616H59.1649V13.5068C59.1649 10.1564 56.4846 7.99733 52.36 7.99733C48.5332 7.99733 45.704 10.1862 45.5998 13.1941H48.8459C49.1139 11.7646 50.4392 10.8265 52.2558 10.8265C54.4596 10.8265 55.6955 11.8539 55.6955 13.745V15.0256L51.1986 15.2936C47.0144 15.5467 44.7511 17.2591 44.7511 20.2372C44.7511 23.245 47.0888 25.2403 50.4392 25.2403ZM51.407 22.4856C49.4862 22.4856 48.2652 21.5624 48.2652 20.1478C48.2652 18.6886 49.4415 17.8398 51.69 17.7058L55.6955 17.4527V18.763C55.6955 20.937 53.8491 22.4856 51.407 22.4856ZM63.6171 31.3751C67.1312 31.3751 68.784 30.035 70.2284 25.9699L76.5568 8.22069H72.8938L68.65 21.9347H68.5756L64.3318 8.22069H60.5646L66.6696 25.1212L66.342 26.1486C65.7911 27.8908 64.8977 28.5609 63.3044 28.5609C63.0215 28.5609 62.4706 28.5311 62.2472 28.5013V31.2858C62.4557 31.3454 63.3491 31.3751 63.6171 31.3751Z" fill="#FCAD00"/>
</svg>
