<svg width="80" height="26" viewBox="0 0 80 26" fill="none" xmlns="http://www.w3.org/2000/svg">
<path d="M30.259 0.452617L19.824 25.3549H13.0168L7.88228 5.4854C7.57097 4.26042 7.30117 3.81196 6.35065 3.29705C4.80242 2.45826 2.24556 1.66929 0 1.1793L0.153578 0.456771H11.1116C12.5062 0.456771 13.7639 1.38692 14.0794 2.99808L16.7898 17.4071L23.4933 0.456771H30.259V0.452617ZM56.9276 17.2286C56.9566 10.6552 47.8416 10.294 47.9038 7.35816C47.9246 6.46538 48.7755 5.51447 50.635 5.27363C51.5565 5.1532 54.1009 5.06185 56.9857 6.38649L58.1147 1.10455C56.5664 0.543971 54.5699 0 52.0919 0C45.7247 0 41.246 3.38426 41.2087 8.23433C41.1672 11.8179 44.4048 13.8194 46.8454 15.0111C49.3566 16.232 50.1992 17.0168 50.1868 18.1047C50.1701 19.774 48.1861 20.5132 46.3307 20.5422C43.0931 20.5921 41.217 19.6661 39.7185 18.9684L38.5522 24.4248C40.0548 25.1141 42.8358 25.7162 45.7122 25.7494C52.4821 25.7494 56.9068 22.4067 56.9276 17.2286ZM73.7381 25.3591H79.6944L74.4936 0.452617H68.998C67.761 0.452617 66.7192 1.17099 66.2585 2.2797L56.5955 25.3549H63.3571L64.7019 21.6343H72.9619L73.7381 25.3591ZM66.5532 16.5351L69.9443 7.18376L71.8952 16.5351H66.5532ZM39.4571 0.452617L34.1316 25.3549H27.6938L33.0192 0.452617H39.4571Z" fill="#FCAD00"/>
</svg>
