<svg width="56" height="44" viewBox="0 0 56 44" fill="none" xmlns="http://www.w3.org/2000/svg">
<path d="M10.0677 42.8349V39.9856C10.0677 38.8934 9.40283 38.181 8.2631 38.181C7.69323 38.181 7.07588 38.371 6.64848 38.9883C6.31606 38.466 5.84116 38.181 5.12883 38.181C4.65394 38.181 4.17906 38.3235 3.79915 38.8459V38.276H2.80188V42.8349H3.79915V40.318C3.79915 39.5107 4.22654 39.1308 4.89139 39.1308C5.55623 39.1308 5.88865 39.5582 5.88865 40.318V42.8349H6.88592V40.318C6.88592 39.5107 7.36081 39.1308 7.97816 39.1308C8.643 39.1308 8.97543 39.5582 8.97543 40.318V42.8349H10.0677ZM24.8367 38.276H23.2221V36.8988H22.2248V38.276H21.3225V39.1783H22.2248V41.2678C22.2248 42.3126 22.6522 42.9299 23.7919 42.9299C24.2193 42.9299 24.6942 42.7874 25.0267 42.5975L24.7417 41.7427C24.4568 41.9326 24.1244 41.9801 23.8869 41.9801C23.412 41.9801 23.2221 41.6952 23.2221 41.2203V39.1783H24.8367V38.276ZM33.2897 38.181C32.7198 38.181 32.3399 38.466 32.1025 38.8459V38.276H31.1052V42.8349H32.1025V40.2705C32.1025 39.5107 32.4349 39.0833 33.0523 39.0833C33.2422 39.0833 33.4797 39.1308 33.6696 39.1783L33.9546 38.2285C33.7646 38.181 33.4797 38.181 33.2897 38.181ZM20.5152 38.6559C20.0403 38.3235 19.3755 38.181 18.6631 38.181C17.5234 38.181 16.7636 38.7509 16.7636 39.6532C16.7636 40.413 17.3335 40.8404 18.3307 40.9829L18.8056 41.0304C19.328 41.1253 19.6129 41.2678 19.6129 41.5052C19.6129 41.8377 19.233 42.0751 18.5682 42.0751C17.9033 42.0751 17.381 41.8377 17.0485 41.6002L16.5736 42.36C17.096 42.74 17.8084 42.9299 18.5207 42.9299C19.8504 42.9299 20.6102 42.3126 20.6102 41.4578C20.6102 40.6505 19.9928 40.223 19.0431 40.0806L18.5682 40.0331C18.1408 39.9856 17.8084 39.8906 17.8084 39.6057C17.8084 39.2733 18.1408 39.0833 18.6631 39.0833C19.233 39.0833 19.8029 39.3208 20.0878 39.4632L20.5152 38.6559ZM47.014 38.181C46.4441 38.181 46.0642 38.466 45.8268 38.8459V38.276H44.8295V42.8349H45.8268V40.2705C45.8268 39.5107 46.1592 39.0833 46.7765 39.0833C46.9665 39.0833 47.2039 39.1308 47.3939 39.1783L47.6788 38.2285C47.4889 38.181 47.2039 38.181 47.014 38.181ZM34.287 40.5555C34.287 41.9326 35.2368 42.9299 36.7089 42.9299C37.3738 42.9299 37.8486 42.7875 38.3235 42.4075L37.8486 41.6002C37.4687 41.8852 37.0888 42.0276 36.6614 42.0276C35.8541 42.0276 35.2842 41.4578 35.2842 40.5555C35.2842 39.7007 35.8541 39.1308 36.6614 39.0833C37.0888 39.0833 37.4687 39.2258 37.8486 39.5107L38.3235 38.7034C37.8486 38.3235 37.3738 38.181 36.7089 38.181C35.2368 38.181 34.287 39.1783 34.287 40.5555ZM43.4998 40.5555V38.276H42.5026V38.8459C42.1701 38.4185 41.6952 38.181 41.0779 38.181C39.7957 38.181 38.7984 39.1783 38.7984 40.5555C38.7984 41.9326 39.7957 42.9299 41.0779 42.9299C41.7427 42.9299 42.2176 42.6925 42.5026 42.2651V42.8349H43.4998V40.5555ZM39.8432 40.5555C39.8432 39.7482 40.3655 39.0833 41.2203 39.0833C42.0277 39.0833 42.5975 39.7007 42.5975 40.5555C42.5975 41.3628 42.0277 42.0276 41.2203 42.0276C40.3655 41.9801 39.8432 41.3628 39.8432 40.5555ZM27.9235 38.181C26.5938 38.181 25.644 39.1308 25.644 40.5555C25.644 41.9801 26.5938 42.9299 27.971 42.9299C28.6358 42.9299 29.3006 42.74 29.823 42.3126L29.3481 41.6002C28.9682 41.8852 28.4933 42.0751 28.0185 42.0751C27.4011 42.0751 26.7837 41.7902 26.6413 40.9829H30.013C30.013 40.8404 30.013 40.7454 30.013 40.603C30.0605 39.1308 29.2057 38.181 27.9235 38.181ZM27.9235 39.0358C28.5408 39.0358 28.9682 39.4157 29.0632 40.1281H26.6888C26.7837 39.5107 27.2111 39.0358 27.9235 39.0358ZM52.6652 40.5555V36.4714H51.6679V38.8459C51.3355 38.4185 50.8606 38.181 50.2432 38.181C48.961 38.181 47.9638 39.1783 47.9638 40.5555C47.9638 41.9326 48.961 42.9299 50.2432 42.9299C50.9081 42.9299 51.383 42.6925 51.6679 42.2651V42.8349H52.6652V40.5555ZM49.0085 40.5555C49.0085 39.7482 49.5309 39.0833 50.3857 39.0833C51.193 39.0833 51.7629 39.7007 51.7629 40.5555C51.7629 41.3628 51.193 42.0276 50.3857 42.0276C49.5309 41.9801 49.0085 41.3628 49.0085 40.5555ZM15.6714 40.5555V38.276H14.6741V38.8459C14.3417 38.4185 13.8668 38.181 13.2494 38.181C11.9672 38.181 10.97 39.1783 10.97 40.5555C10.97 41.9326 11.9672 42.9299 13.2494 42.9299C13.9143 42.9299 14.3892 42.6925 14.6741 42.2651V42.8349H15.6714V40.5555ZM11.9672 40.5555C11.9672 39.7482 12.4896 39.0833 13.3444 39.0833C14.1517 39.0833 14.7216 39.7007 14.7216 40.5555C14.7216 41.3628 14.1517 42.0276 13.3444 42.0276C12.4896 41.9801 11.9672 41.3628 11.9672 40.5555ZM54.3273 42.1701C54.3748 42.1701 54.4697 42.1701 54.5172 42.2176C54.5647 42.2176 54.6122 42.2651 54.6597 42.3126C54.7072 42.36 54.7547 42.4075 54.7547 42.455C54.8022 42.5025 54.8022 42.55 54.8022 42.645C54.8022 42.6925 54.8022 42.7874 54.7547 42.8349C54.7072 42.8824 54.7072 42.9299 54.6597 42.9774C54.6122 43.0249 54.5647 43.0724 54.5172 43.0724C54.4697 43.1199 54.4222 43.1199 54.3273 43.1199C54.2798 43.1199 54.1848 43.1199 54.1373 43.0724C54.0898 43.0249 54.0423 43.0249 53.9948 42.9774C53.9474 42.9299 53.8999 42.8824 53.8999 42.8349C53.8524 42.7874 53.8524 42.74 53.8524 42.645C53.8524 42.5975 53.8524 42.5025 53.8999 42.455C53.9474 42.4075 53.9474 42.36 53.9948 42.3126C54.0423 42.2651 54.0898 42.2176 54.1373 42.2176C54.1848 42.1701 54.2798 42.1701 54.3273 42.1701ZM54.3273 42.9774C54.3748 42.9774 54.4222 42.9774 54.4697 42.9299C54.5172 42.9299 54.5647 42.8824 54.5647 42.8349C54.6122 42.7874 54.6122 42.7874 54.6597 42.74C54.6597 42.6925 54.7072 42.645 54.7072 42.5975C54.7072 42.55 54.7072 42.5025 54.6597 42.455C54.6597 42.4075 54.6122 42.36 54.5647 42.36C54.5172 42.3126 54.5172 42.3126 54.4697 42.2651C54.4222 42.2651 54.3748 42.2176 54.3273 42.2176C54.2798 42.2176 54.2323 42.2176 54.1848 42.2651C54.1373 42.2651 54.0898 42.3126 54.0898 42.36C54.0423 42.4075 54.0423 42.4075 53.9948 42.455C53.9948 42.5025 53.9473 42.55 53.9473 42.5975C53.9473 42.645 53.9474 42.6925 53.9948 42.74C53.9948 42.7874 54.0423 42.8349 54.0898 42.8349C54.1373 42.8824 54.1373 42.8824 54.1848 42.9299C54.2323 42.9299 54.2798 42.9774 54.3273 42.9774ZM54.3748 42.4075C54.4222 42.4075 54.4697 42.4075 54.5172 42.455C54.5647 42.5025 54.5647 42.5025 54.5647 42.55C54.5647 42.5975 54.5647 42.5975 54.5172 42.645C54.5172 42.645 54.4697 42.6925 54.4222 42.6925L54.5647 42.8349H54.4697L54.3273 42.6925H54.2798V42.8349H54.1848V42.4075H54.3748ZM54.2323 42.455V42.55H54.3273H54.3748C54.3748 42.55 54.3748 42.55 54.3748 42.5025V42.455H54.3273H54.2323Z" fill="#FCAD00"/>
<path d="M35.1417 3.65674H20.1827V30.5354H35.1417V3.65674Z" fill="#FCAD00"/>
<path d="M21.1325 17.096C21.1325 11.6348 23.6969 6.79091 27.6385 3.65665C24.7417 1.37718 21.085 0 17.096 0C7.6457 0 0 7.6457 0 17.096C0 26.5463 7.6457 34.192 17.096 34.192C21.085 34.192 24.7417 32.8148 27.6385 30.5353C23.6969 27.4486 21.1325 22.5572 21.1325 17.096Z" fill="#FCAD00"/>
<path d="M53.7098 27.7334V27.1636H53.9473V27.0686H53.3774V27.1636H53.6149V27.7334H53.7098ZM54.8021 27.7334V27.0686H54.6121L54.4222 27.5435L54.2322 27.0686H54.0423V27.7334H54.1847V27.2111L54.3747 27.6385H54.5171L54.7071 27.2111V27.7334H54.8021Z" fill="#FCAD00"/>
<path d="M55.3245 17.096C55.3245 26.5463 47.6788 34.192 38.2285 34.192C34.2394 34.192 30.5828 32.8148 27.686 30.5353C31.675 27.4011 34.192 22.5572 34.192 17.096C34.192 11.6348 31.6275 6.79091 27.686 3.65665C30.5828 1.37718 34.2394 0 38.2285 0C47.6788 0 55.3245 7.69319 55.3245 17.096Z" fill="#FCAD00"/>
</svg>
