<svg width="98" height="19" viewBox="0 0 98 19" fill="none" xmlns="http://www.w3.org/2000/svg">
<g clip-path="url(#clip0_1321_3)">
<path d="M5.91882 7.98396L9.73143 4.29429L13.5461 7.98591L15.7645 5.83892L9.73143 0L3.70038 5.83697L5.91882 7.98396Z" fill="#FCAD00"/>
<path d="M4.35213 9.49974L2.13373 7.35278L-0.0847848 9.49985L2.13362 11.6468L4.35213 9.49974Z" fill="#FCAD00"/>
<path d="M5.91878 11.016L9.73139 14.7056L13.5459 11.0142L15.7655 13.16L15.7645 13.1612L9.73139 18.9999L3.70018 13.1631L3.69708 13.1601L5.91878 11.016Z" fill="#FCAD00"/>
<path d="M17.3293 11.6478L19.5478 9.50073L17.3294 7.35378L15.1109 9.50084L17.3293 11.6478Z" fill="#FCAD00"/>
<path d="M11.9817 9.49897H11.9826L9.73143 7.32031L8.06779 8.93037H8.06764L7.87661 9.1154L7.48229 9.49702L7.47919 9.50002L7.48229 9.50317L9.73143 11.6799L11.9826 9.50122L11.9837 9.50002L11.9817 9.49897Z" fill="#FCAD00"/>
<path d="M23.0062 4.60376H27.8312C29.0288 4.60376 29.9343 4.90119 30.548 5.49605C31.023 5.95675 31.2604 6.52776 31.2604 7.2089V7.23772C31.2604 7.52554 31.2236 7.77991 31.1497 8.0005C31.0759 8.2214 30.9772 8.42024 30.854 8.59776C30.731 8.77544 30.588 8.93136 30.4255 9.06552C30.2629 9.19998 30.0881 9.31523 29.901 9.41097C30.5029 9.63187 30.9768 9.93155 31.3222 10.3106C31.6676 10.6898 31.8405 11.2152 31.8405 11.8868V11.9154C31.8405 12.3761 31.749 12.7791 31.5658 13.1247C31.3827 13.47 31.1204 13.7579 30.7788 13.9883C30.4372 14.2186 30.0264 14.3912 29.5463 14.5065C29.0663 14.6216 28.5343 14.679 27.9505 14.679H23.0062V4.60376ZM27.3488 8.677C27.8546 8.677 28.2562 8.59326 28.5535 8.42519C28.8509 8.25727 28.9996 7.9861 28.9996 7.61198V7.58317C28.9996 7.24747 28.8706 6.99086 28.6129 6.81318C28.355 6.63565 27.9832 6.54681 27.4975 6.54681H25.2369V8.677H27.3488ZM27.9587 12.7361C28.4643 12.7361 28.8607 12.6476 29.1485 12.4699C29.4359 12.2924 29.5798 12.0164 29.5798 11.6422V11.6135C29.5798 11.2776 29.4459 11.0114 29.1782 10.8145C28.9104 10.6181 28.4792 10.5197 27.8843 10.5197H25.2369V12.7363H27.9587V12.7361Z" fill="#FCAD00"/>
<path d="M34.7141 4.60376H37.0046V14.6793H34.7141V4.60376Z" fill="#FCAD00"/>
<path d="M40.4738 4.60376H42.5854L47.4637 10.8075V4.60376H49.7243V14.6793H47.7761L42.7342 8.27422V14.6793H40.4738V4.60376Z" fill="#FCAD00"/>
<path d="M56.6586 4.53198H58.7703L63.2324 14.6794H60.8378L59.8858 12.4197H55.4835L54.5318 14.6794H52.1964L56.6586 4.53198ZM59.0679 10.462L57.6846 7.19475L56.3018 10.462H59.0679Z" fill="#FCAD00"/>
<path d="M65.7048 4.60376H67.8168L72.6949 10.8075V4.60376H74.9555V14.6793H73.0073L67.9654 8.27422V14.6793H65.7048V4.60376Z" fill="#FCAD00"/>
<path d="M83.1985 14.852C82.4346 14.852 81.726 14.7176 81.0715 14.4491C80.417 14.1806 79.852 13.8134 79.3761 13.3479C78.9 12.8826 78.5281 12.3332 78.2607 11.6999C77.993 11.0665 77.8591 10.39 77.8591 9.67026V9.64159C77.8591 8.92188 77.993 8.24793 78.2607 7.6193C78.5282 6.99083 78.9 6.43903 79.3761 5.96408C79.8518 5.48912 80.4221 5.1147 81.0862 4.84128C81.7504 4.56786 82.4846 4.43115 83.2876 4.43115C83.7731 4.43115 84.2167 4.46972 84.6183 4.54625C85.0199 4.62324 85.3842 4.72858 85.7117 4.86289C86.039 4.99735 86.341 5.16047 86.6191 5.35226C86.8962 5.54434 87.1542 5.75533 87.3922 5.98569L85.9349 7.6121C85.5279 7.25719 85.1142 6.97867 84.6929 6.77728C84.2713 6.57589 83.7981 6.47505 83.2726 6.47505C82.8362 6.47505 82.4321 6.55669 82.0606 6.71981C81.6888 6.88293 81.3689 7.10833 81.1011 7.39616C80.8336 7.68398 80.6254 8.01758 80.4764 8.39649C80.328 8.77571 80.2537 9.18104 80.2537 9.61278V9.64144C80.2537 10.0732 80.328 10.4812 80.4764 10.8648C80.6254 11.2488 80.8307 11.5845 81.0938 11.8723C81.3563 12.1601 81.6737 12.3882 82.0454 12.5562C82.4176 12.7242 82.8265 12.808 83.2726 12.808C83.8677 12.808 84.3704 12.7025 84.7819 12.4913C85.1934 12.2805 85.6026 11.9925 86.0091 11.6277L87.4666 13.0527C87.1988 13.3311 86.9208 13.5807 86.6338 13.8011C86.3462 14.022 86.0314 14.2114 85.6892 14.3699C85.3473 14.528 84.9726 14.6482 84.5665 14.7296C84.1597 14.8111 83.7038 14.852 83.1985 14.852Z" fill="#FCAD00"/>
<path d="M90.1622 4.60376H98V6.57578H92.423V8.61967H97.3309V10.5915H92.423V12.7075H98.0747V14.6793H90.1622V4.60376Z" fill="#FCAD00"/>
</g>
<defs>
<clipPath id="clip0_1321_3">
<rect width="98" height="19" fill="white"/>
</clipPath>
</defs>
</svg>
