<svg width="80" height="32" viewBox="0 0 80 32" fill="none" xmlns="http://www.w3.org/2000/svg">
<path d="M38.0744 15.3236V24.5175H35.1577V1.81256H42.8933C43.8167 1.79327 44.7347 1.95704 45.5945 2.2944C46.4542 2.63177 47.2386 3.13606 47.9025 3.77816C48.573 4.38129 49.1066 5.12095 49.4675 5.94745C49.8284 6.77395 50.0083 7.66813 49.9949 8.56989C50.0141 9.47647 49.837 10.3765 49.4759 11.2083C49.1147 12.04 48.578 12.7839 47.9025 13.3888C46.5498 14.6787 44.8801 15.323 42.8933 15.3218H38.0744V15.3236ZM38.0744 4.60788V12.5337H42.9658C43.502 12.5496 44.0357 12.4534 44.5326 12.2513C45.0296 12.0491 45.4788 11.7455 45.8517 11.3598C46.2226 10.9992 46.5175 10.5678 46.7188 10.0913C46.9202 9.61471 47.0239 9.10262 47.0239 8.58529C47.0239 8.06795 46.9202 7.55586 46.7188 7.07931C46.5175 6.60276 46.2226 6.17142 45.8517 5.8108C45.4835 5.41696 45.0358 5.10589 44.5383 4.89819C44.0407 4.6905 43.5047 4.59092 42.9658 4.60607H38.0744V4.60788Z" fill="#FCAD00"/>
<path d="M56.716 8.47559C58.8718 8.47559 60.5735 9.05168 61.8211 10.2039C63.0687 11.3561 63.6919 12.9358 63.6907 14.9431V24.5174H60.9008V22.3616H60.774C59.5663 24.137 57.96 25.0247 55.9551 25.0247C54.2437 25.0247 52.812 24.5174 51.6598 23.5029C51.1068 23.0373 50.6648 22.4542 50.3658 21.796C50.0668 21.1379 49.9184 20.4213 49.9315 19.6985C49.9315 18.091 50.539 16.8126 51.754 15.8634C52.969 14.9141 54.591 14.4382 56.62 14.4358C58.3519 14.4358 59.7782 14.7528 60.899 15.3869V14.7202C60.9023 14.2275 60.7959 13.7402 60.5875 13.2937C60.3792 12.8472 60.074 12.4526 59.6943 12.1387C58.923 11.4428 57.9178 11.0631 56.879 11.0753C55.2498 11.0753 53.9605 11.7625 53.0112 13.1369L50.4424 11.5191C51.8554 9.49009 53.9466 8.47559 56.716 8.47559ZM52.9424 19.762C52.9404 20.1332 53.0272 20.4995 53.1955 20.8303C53.3638 21.1612 53.6087 21.4471 53.9098 21.6641C54.5549 22.1716 55.3555 22.4404 56.1761 22.425C57.4069 22.423 58.5867 21.9331 59.457 21.0627C60.4232 20.1533 60.9063 19.0862 60.9063 17.8616C59.9968 17.1369 58.7287 16.7746 57.1019 16.7746C55.9171 16.7746 54.9291 17.0602 54.1381 17.6315C53.3391 18.2112 52.9424 18.9159 52.9424 19.762Z" fill="#FCAD00"/>
<path d="M79.7054 8.98291L69.9661 31.3654H66.9552L70.5694 23.5338L64.1653 8.98291H67.3357L71.9643 20.1425H72.0278L76.5296 8.98291H79.7054Z" fill="#FCAD00"/>
<path d="M26.2881 13.3417C26.2892 12.4528 26.214 11.5655 26.0634 10.6895H13.7626V15.7131H20.8079C20.6638 16.5154 20.3586 17.2802 19.9109 17.9615C19.4632 18.6427 18.8822 19.2262 18.2028 19.6769V22.9378H22.4076C24.8696 20.6678 26.2881 17.3109 26.2881 13.3417Z" fill="#FCAD00"/>
<path d="M13.7626 26.0882C17.2826 26.0882 20.2464 24.9324 22.4076 22.9397L18.2029 19.6787C17.0325 20.4722 15.5253 20.9251 13.7626 20.9251C10.3604 20.9251 7.47265 18.6316 6.44003 15.541H2.10846V18.9016C3.1941 21.0619 4.85881 22.8779 6.91674 24.147C8.97467 25.416 11.3448 26.0881 13.7626 26.0882Z" fill="#FCAD00"/>
<path d="M6.44003 15.5409C5.89412 13.9214 5.89412 12.1676 6.44003 10.548V7.1875H2.10846C1.19518 9.00483 0.719543 11.0106 0.719543 13.0445C0.719543 15.0784 1.19518 17.0841 2.10846 18.9014L6.44003 15.5409Z" fill="#FCAD00"/>
<path d="M13.7626 5.16396C15.6227 5.13357 17.4201 5.83639 18.7663 7.1205L22.4891 3.39764C20.1284 1.18036 17.0011 -0.036969 13.7626 0.000855784C11.3448 0.000965976 8.97467 0.673064 6.91674 1.94212C4.85881 3.21117 3.1941 5.02722 2.10846 7.18753L6.44003 10.5481C7.47265 7.45747 10.3604 5.16396 13.7626 5.16396Z" fill="#FCAD00"/>
</svg>
