<svg width="47" height="47" viewBox="0 0 47 47" fill="none" xmlns="http://www.w3.org/2000/svg">
<path d="M17.125 6.44861C7.7325 6.44861 0.125 14.0561 0.125 23.4486C0.125 32.8411 7.7325 40.4486 17.125 40.4486C26.5175 40.4486 34.125 32.8411 34.125 23.4486C34.125 14.0561 26.5175 6.44861 17.125 6.44861ZM23.5 20.2611H19.25V30.8861H15V20.2611H10.75V17.0736H23.5V20.2611ZM41.0312 5.91736L46.875 8.57361L41.0312 11.2299L38.375 17.0736L35.7187 11.2299L29.875 8.57361L35.7187 5.91736L38.375 0.0736084L41.0312 5.91736ZM41.0312 35.6674L46.875 38.3236L41.0312 40.9799L38.375 46.8236L35.7187 40.9799L29.875 38.3236L35.7187 35.6674L38.375 29.8236L41.0312 35.6674Z" fill="#FCAD00"/>
</svg>
