<svg width="40" height="37" viewBox="0 0 40 37" fill="none" xmlns="http://www.w3.org/2000/svg">
<path d="M37.969 0.979858H2.03149C1.16724 0.979858 0.468994 1.62224 0.468994 2.41736V35.4799C0.468994 36.275 1.16724 36.9174 2.03149 36.9174H37.969C38.8333 36.9174 39.5315 36.275 39.5315 35.4799V2.41736C39.5315 1.62224 38.8333 0.979858 37.969 0.979858ZM20.054 19.2226L10.679 26.4551C10.425 26.6527 10.0393 26.4865 10.0393 26.181V23.3644C10.0393 23.2611 10.093 23.1578 10.1809 23.0904L15.5422 18.9486L10.1809 14.8068C10.136 14.7742 10.0999 14.7325 10.0754 14.685C10.0508 14.6375 10.0385 14.5854 10.0393 14.5328V11.7162C10.0393 11.4107 10.425 11.2445 10.679 11.4422L20.054 18.6701C20.2444 18.8138 20.2444 19.0789 20.054 19.2226ZM29.9612 26.181C29.9612 26.3787 29.7952 26.5404 29.595 26.5404H20.5618C20.3616 26.5404 20.1956 26.3787 20.1956 26.181V24.0248C20.1956 23.8271 20.3616 23.6654 20.5618 23.6654H29.595C29.7952 23.6654 29.9612 23.8271 29.9612 24.0248V26.181Z" fill="#FCAD00"/>
</svg>
