<svg width="40" height="42" viewBox="0 0 40 42" fill="none" xmlns="http://www.w3.org/2000/svg">
<path d="M31.9999 25.9486C34.1999 25.9486 36.1999 26.7486 37.5999 28.3486L39.9999 25.9486V33.9486H31.9999L35.5999 30.3486C34.5999 29.5486 33.3999 28.9486 31.9999 28.9486C29.1999 28.9486 26.9999 31.1486 26.9999 33.9486C26.9999 36.7486 29.1999 38.9486 31.9999 38.9486C33.5999 38.9486 34.9999 38.1486 35.9999 36.9486H39.3999C38.1999 39.9486 35.3999 41.9486 31.9999 41.9486C27.5999 41.9486 23.9999 38.3486 23.9999 33.9486C23.9999 29.5486 27.5999 25.9486 31.9999 25.9486ZM18.9999 33.9486C18.9999 31.7486 19.5999 29.7486 20.3999 27.9486H19.9999C16.1999 27.9486 12.9999 24.7486 12.9999 20.9486C12.9999 17.1486 16.1999 13.9486 19.9999 13.9486C23.7999 13.9486 26.9999 17.1486 26.9999 20.9486C26.9999 21.3486 26.9999 21.7486 26.7999 21.9486C28.3999 21.3486 29.9999 20.9486 31.9999 20.9486C32.9999 20.9486 33.9999 21.1486 34.9999 21.3486V20.9486C34.9999 20.3486 34.9999 19.5486 34.7999 18.9486L38.9999 15.7486C39.3999 15.3486 39.3999 14.9486 39.1999 14.5486L35.1999 7.54861C34.9999 6.94861 34.5999 6.94861 33.9999 6.94861L28.9999 8.94861C27.9999 8.14861 26.7999 7.54861 25.5999 6.94861L24.7999 1.54861C24.9999 1.34861 24.3999 0.948608 23.9999 0.948608H15.9999C15.5999 0.948608 14.9999 1.34861 14.9999 1.74861L14.1999 7.14861C12.9999 7.54861 11.9999 8.34861 10.7999 8.94861L5.99995 6.94861C5.39995 6.94861 4.99995 6.94861 4.59995 7.54861L0.599945 14.5486C0.399945 14.9486 0.599945 15.3486 0.999945 15.7486L5.19994 18.9486C5.19994 19.5486 4.99995 20.3486 4.99995 20.9486C4.99995 21.5486 4.99994 22.3486 5.19994 22.9486L0.999945 26.3486C0.599945 26.7486 0.599946 27.1486 0.799946 27.5486L4.79995 34.5486C4.99995 34.9486 5.39995 34.9486 5.99995 34.9486L10.9999 32.9486C11.9999 33.7486 13.1999 34.3486 14.3999 34.9486L15.1999 40.3486C15.1999 40.7486 15.5999 41.1486 16.1999 41.1486H21.1999C19.7999 38.9486 18.9999 36.5486 18.9999 33.9486Z" fill="#FCAD00"/>
</svg>
