<svg width="38" height="30" viewBox="0 0 38 30" fill="none" xmlns="http://www.w3.org/2000/svg">
<path d="M36.3787 0.999253C36.7164 0.999253 37.0036 1.10059 37.24 1.30325C37.4764 1.50592 37.5778 1.79303 37.544 2.16459V28.0046C37.544 28.3424 37.4427 28.6126 37.24 28.8153C37.0373 29.0179 36.7502 29.1361 36.3787 29.1699H1.16533C0.827556 29.1699 0.557333 29.0517 0.354667 28.8153C0.152 28.5788 0.0337778 28.3086 0 28.0046V2.16459C0 1.82681 0.118222 1.5397 0.354667 1.30325C0.591111 1.06681 0.861333 0.965475 1.16533 0.999253H36.3787ZM4.712 17.4153H15.2507V13.9193H4.712V17.4153ZM24.624 20.9619H4.712V24.4579H24.624V20.9619ZM32.8827 5.71125H29.336V9.20725H32.8827V5.71125Z" fill="#FCAD00"/>
</svg>
