<svg width="22" height="18" viewBox="0 0 22 18" fill="none" xmlns="http://www.w3.org/2000/svg">
<path d="M21.5617 2.45636C20.7847 2.79151 19.9392 3.03273 19.0683 3.12667C19.9725 2.5895 20.6496 1.74085 20.9726 0.739952C20.1242 1.24469 19.1947 1.59862 18.2254 1.78605C17.8203 1.35295 17.3303 1.00792 16.786 0.772471C16.2417 0.537018 15.6547 0.416181 15.0617 0.417491C12.6623 0.417491 10.7326 2.36241 10.7326 4.74913C10.7326 5.08429 10.7732 5.41944 10.8392 5.74191C7.24647 5.55401 4.04217 3.83761 1.9119 1.20968C1.52374 1.87267 1.32033 2.62756 1.32283 3.39581C1.32283 4.89894 2.08709 6.22433 3.25252 7.00382C2.56571 6.97677 1.89499 6.78799 1.2949 6.45284V6.50616C1.2949 8.61105 2.78279 10.3554 4.7658 10.7566C4.39347 10.8533 4.01045 10.9027 3.62576 10.9038C3.34393 10.9038 3.07732 10.8759 2.80818 10.8378C3.35662 12.5542 4.95369 13.8009 6.85545 13.8415C5.36756 15.0069 3.50389 15.6925 1.48025 15.6925C1.11717 15.6925 0.782012 15.6798 0.434161 15.6392C2.35369 16.8706 4.63123 17.5816 7.08397 17.5816C15.0465 17.5816 19.4035 10.9851 19.4035 5.25948C19.4035 5.07159 19.4035 4.8837 19.3908 4.69581C20.2338 4.07882 20.9726 3.31456 21.5617 2.45636Z" fill="#FCAD00"/>
</svg>
