<svg width="80" height="27" viewBox="0 0 80 27" fill="none" xmlns="http://www.w3.org/2000/svg">
<path d="M30.5395 1.34721L20.1045 26.2495H13.2973L8.1628 6.37999C7.85149 5.15502 7.58169 4.70655 6.63117 4.19165C5.08294 3.35285 2.52607 2.56388 0.280518 2.07389L0.434096 1.35136H11.3921C12.7867 1.35136 14.0444 2.28151 14.3599 3.89267L17.0703 18.3017L23.7738 1.35136H30.5395V1.34721ZM57.2081 18.1232C57.2371 11.5498 48.1221 11.1885 48.1844 8.25275C48.2051 7.35997 49.056 6.40906 50.9155 6.16822C51.837 6.0478 54.3814 5.95644 57.2662 7.28108L58.3952 1.99915C56.847 1.43856 54.8505 0.894592 52.3725 0.894592C46.0052 0.894592 41.5265 4.27885 41.4892 9.12892C41.4477 12.7125 44.6853 14.714 47.1259 15.9057C49.6371 17.1266 50.4797 17.9114 50.4673 18.9993C50.4507 20.6686 48.4666 21.4078 46.6112 21.4368C43.3736 21.4866 41.4975 20.5606 39.9991 19.863L38.8327 25.3194C40.3353 26.0087 43.1163 26.6108 45.9928 26.644C52.7626 26.644 57.1873 23.3013 57.2081 18.1232ZM74.0186 26.2537H79.975L74.7741 1.34721H69.2785C68.0415 1.34721 66.9997 2.06558 66.539 3.17429L56.876 26.2495H63.6376L64.9824 22.5289H73.2424L74.0186 26.2537ZM66.8337 17.4297L70.2248 8.07835L72.1757 17.4297H66.8337ZM39.7376 1.34721L34.4122 26.2495H27.9743L33.2998 1.34721H39.7376Z" fill="#707070"/>
</svg>
